<svg width="17" height="16" viewBox="0 0 17 16" fill="none" xmlns="http://www.w3.org/2000/svg">
<g clip-path="url(#clip0_8_414)">
<rect x="0.769531" y="0.1875" width="15.625" height="15.625" rx="1" fill="#111629"/>
<path d="M10.5497 10.2866H9.72215C9.6062 10.2866 9.51221 10.3806 9.51221 10.4966V11.0493C9.51221 11.1652 9.6062 11.2592 9.72215 11.2592H10.5497C10.6656 11.2592 10.7596 11.1652 10.7596 11.0493V10.4966C10.7596 10.3806 10.6656 10.2866 10.5497 10.2866Z" fill="white"/>
<path d="M13.7838 7.24018C13.8419 7.23931 13.8896 7.19617 13.8896 7.13799V6.85674C13.8896 6.70705 13.7956 6.61334 13.6797 6.61334H11.6103C11.4907 6.61334 11.3935 6.51687 11.3925 6.39726L11.391 6.19723C11.3901 6.0819 11.2964 5.98888 11.181 5.98888H10.9773C10.8613 5.98888 10.7673 5.89487 10.7673 5.77891V4.94992C10.7673 4.83438 10.6736 4.74072 10.5581 4.74072H10.3528C10.2368 4.74072 10.1428 4.83473 10.1428 4.95069V5.15444C10.1428 5.2704 10.0488 5.36441 9.93287 5.36441H9.10465C8.98869 5.36441 8.89468 5.2704 8.89468 5.15444V4.95069C8.89468 4.83473 8.80067 4.74072 8.68471 4.74072H8.48018C8.36422 4.74072 8.27021 4.83473 8.27021 4.95069V5.39007C8.27021 5.50604 8.1762 5.60005 8.06024 5.60005H4.81348C4.69752 5.60005 4.60351 5.69405 4.60351 5.81002V6.40337C4.60351 6.51933 4.5095 6.61334 4.39354 6.61334H4.10892C3.99295 6.61334 3.89895 6.70735 3.89895 6.82331V7.02784C3.89895 7.1438 3.80494 7.23781 3.68897 7.23781H3.48445C3.36848 7.23781 3.27448 7.33182 3.27448 7.44778V7.81173C3.27448 7.92769 3.36848 8.0217 3.48445 8.0217H3.68897C3.80494 8.0217 3.89895 8.11571 3.89895 8.23167V11.0492C3.89895 11.1651 3.99295 11.2591 4.10891 11.2591H4.93635C5.053 11.2591 5.14632 11.165 5.14632 11.0492L5.14788 9.93554C5.14788 9.81344 5.24742 9.71468 5.36951 9.71468H5.54993C5.67191 9.71468 5.77079 9.81356 5.77079 9.93554V10.5826C5.77079 10.6985 5.8648 10.7925 5.98076 10.7925H6.8082C6.92416 10.7925 7.01817 10.6985 7.01817 10.5826V9.93632C7.01817 9.81461 7.11775 9.71522 7.23946 9.71545L7.40777 9.71578C7.52357 9.716 7.61733 9.80994 7.61733 9.92574V11.0384C7.61733 11.1544 7.71132 11.2483 7.82726 11.2483H8.65483C8.77077 11.2483 8.86475 11.1544 8.86475 11.0384V9.84647C8.86475 9.75675 8.79202 9.68401 8.7023 9.68401H8.48179C8.36587 9.68401 8.27188 9.59008 8.27181 9.47417L8.27021 6.82487C8.27021 6.70899 8.36431 6.6149 8.48018 6.6149H8.68471C8.80067 6.6149 8.89468 6.7089 8.89468 6.82487V8.90123C8.89468 9.0172 8.98869 9.11121 9.10466 9.11121H9.30226C9.41822 9.11121 9.51223 9.20522 9.51223 9.32118V9.52547C9.51223 9.6414 9.60619 9.7354 9.72212 9.73544L13.6797 9.73707C13.7955 9.73707 13.8896 9.64297 13.8896 9.52709V7.96726C13.8896 7.90905 13.8415 7.86557 13.7833 7.86457C13.669 7.86259 13.577 7.76936 13.577 7.65464V7.45011C13.577 7.33522 13.6693 7.24189 13.7838 7.24018ZM12.2653 7.45011C12.2653 7.33424 12.3594 7.24014 12.4753 7.24014H12.6798C12.7957 7.24014 12.8898 7.33424 12.8898 7.45011V7.65464C12.8898 7.77051 12.7957 7.86461 12.6798 7.86461H12.4753C12.3594 7.86461 12.2653 7.77051 12.2653 7.65464V7.45011ZM10.1428 6.82331C10.1428 6.70744 10.2369 6.61334 10.3528 6.61334H10.5573C10.6732 6.61334 10.7673 6.70744 10.7673 6.82331V7.02784C10.7673 7.14371 10.6732 7.23781 10.5573 7.23781H10.3528C10.2369 7.23781 10.1428 7.14371 10.1428 7.02784V6.82331Z" fill="white"/>
</g>
<defs>
<clipPath id="clip0_8_414">
<rect width="16" height="16" fill="white" transform="translate(0.582031)"/>
</clipPath>
</defs>
</svg>
