<svg width="513" height="512" viewBox="0 0 513 512" fill="none" xmlns="http://www.w3.org/2000/svg">
<rect x="6.58203" y="6" width="500" height="500" rx="12" fill="#111629"/>
<path d="M319.546 329.174H293.065C289.354 329.174 286.347 332.182 286.347 335.892V353.58C286.347 357.29 289.354 360.298 293.065 360.298H319.546C323.257 360.298 326.264 357.29 326.264 353.58V335.892C326.264 332.182 323.257 329.174 319.546 329.174Z" fill="white"/>
<path d="M423.036 231.685C424.898 231.657 426.424 230.276 426.424 228.415V219.415C426.424 214.625 423.416 211.626 419.705 211.626H353.485C349.658 211.626 346.547 208.539 346.517 204.711L346.468 198.31C346.439 194.62 343.44 191.643 339.749 191.643H333.229C329.518 191.643 326.51 188.635 326.51 184.924V158.396C326.51 154.699 323.513 151.702 319.816 151.702H313.246C309.535 151.702 306.527 154.71 306.527 158.421V164.941C306.527 168.652 303.519 171.66 299.808 171.66H273.305C269.594 171.66 266.586 168.652 266.586 164.941V158.421C266.586 154.71 263.578 151.702 259.867 151.702H253.322C249.611 151.702 246.603 154.71 246.603 158.421V172.481C246.603 176.192 243.595 179.2 239.884 179.2H135.988C132.277 179.2 129.269 182.209 129.269 185.92V204.907C129.269 208.618 126.26 211.626 122.55 211.626H113.442C109.731 211.626 106.723 214.634 106.723 218.345V224.89C106.723 228.601 103.714 231.609 100.003 231.609H93.4586C89.7478 231.609 86.7395 234.617 86.7395 238.328V249.974C86.7395 253.685 89.7478 256.693 93.4586 256.693H100.003C103.714 256.693 106.723 259.702 106.723 263.412V353.572C106.723 357.283 109.731 360.291 113.441 360.291H139.919C143.652 360.291 146.639 357.28 146.639 353.572L146.688 317.936C146.688 314.029 149.874 310.869 153.781 310.869H159.554C163.457 310.869 166.622 314.033 166.622 317.936V338.641C166.622 342.352 169.63 345.36 173.341 345.36H199.819C203.529 345.36 206.538 342.352 206.538 338.641V317.961C206.538 314.066 209.724 310.886 213.619 310.894L219.005 310.904C222.711 310.911 225.711 313.917 225.711 317.623V353.228C225.711 356.938 228.719 359.946 232.429 359.946H258.911C262.621 359.946 265.628 356.939 265.628 353.228V315.086C265.628 312.215 263.301 309.887 260.43 309.887H253.373C249.664 309.887 246.657 306.882 246.654 303.172L246.603 218.395C246.603 214.687 249.614 211.676 253.322 211.676H259.867C263.578 211.676 266.586 214.684 266.586 218.395V284.838C266.586 288.549 269.594 291.558 273.305 291.558H279.629C283.339 291.558 286.348 294.566 286.348 298.277V304.814C286.348 308.524 289.354 311.532 293.064 311.533L419.705 311.585C423.413 311.585 426.424 308.574 426.424 304.866V254.951C426.424 253.089 424.883 251.697 423.02 251.665C419.365 251.602 416.421 248.619 416.421 244.948V238.403C416.421 234.726 419.373 231.74 423.036 231.685ZM374.447 238.403C374.447 234.695 377.458 231.684 381.166 231.684H387.711C391.419 231.684 394.43 234.695 394.43 238.403V244.947C394.43 248.655 391.419 251.667 387.711 251.667H381.166C377.458 251.667 374.447 248.655 374.447 244.947V238.403ZM306.527 218.345C306.527 214.637 309.538 211.626 313.246 211.626H319.791C323.499 211.626 326.51 214.637 326.51 218.345V224.89C326.51 228.598 323.499 231.609 319.791 231.609H313.246C309.538 231.609 306.527 228.598 306.527 224.89V218.345Z" fill="white"/>
</svg>
