<svg width="65" height="64" viewBox="0 0 65 64" fill="none" xmlns="http://www.w3.org/2000/svg">
<rect x="1.33203" y="0.75" width="62.5" height="62.5" rx="4" fill="#111629"/>
<path d="M40.4526 41.147H37.1424C36.6786 41.147 36.3026 41.5229 36.3026 41.9867V44.1977C36.3026 44.6615 36.6786 45.0374 37.1424 45.0374H40.4526C40.9164 45.0374 41.2923 44.6615 41.2923 44.1977V41.9867C41.2923 41.5229 40.9164 41.147 40.4526 41.147Z" fill="white"/>
<path d="M53.3888 28.9607C53.6215 28.9572 53.8123 28.7847 53.8123 28.552V27.427C53.8123 26.8282 53.4363 26.4534 52.9724 26.4534H44.6949C44.2165 26.4534 43.8276 26.0675 43.8239 25.5891L43.8177 24.7889C43.8142 24.3276 43.4392 23.9555 42.9779 23.9555H42.1629C41.699 23.9555 41.323 23.5795 41.323 23.1156V19.7997C41.323 19.3375 40.9483 18.9629 40.4862 18.9629H39.665C39.2011 18.9629 38.8251 19.3389 38.8251 19.8027V20.6178C38.8251 21.0816 38.4491 21.4576 37.9853 21.4576H34.6724C34.2085 21.4576 33.8325 21.0816 33.8325 20.6177V19.8028C33.8325 19.3389 33.4565 18.9629 32.9926 18.9629H32.1745C31.7107 18.9629 31.3346 19.3389 31.3346 19.8028V21.5603C31.3346 22.0242 30.9586 22.4002 30.4947 22.4002H17.5077C17.0439 22.4002 16.6678 22.7762 16.6678 23.2401V25.6135C16.6678 26.0773 16.2918 26.4534 15.8279 26.4534H14.6895C14.2256 26.4534 13.8496 26.8294 13.8496 27.2932V28.1114C13.8496 28.5752 13.4735 28.9512 13.0097 28.9512H12.1916C11.7277 28.9512 11.3517 29.3273 11.3517 29.7911V31.2469C11.3517 31.7108 11.7277 32.0868 12.1916 32.0868H13.0097C13.4735 32.0868 13.8496 32.4628 13.8496 32.9267V44.1966C13.8496 44.6605 14.2256 45.0365 14.6894 45.0365H17.9992C18.4658 45.0365 18.8391 44.6601 18.8391 44.1966L18.8453 39.7422C18.8453 39.2538 19.2434 38.8587 19.7318 38.8587H20.4535C20.9414 38.8587 21.337 39.2542 21.337 39.7422V42.3302C21.337 42.7941 21.713 43.1701 22.1768 43.1701H25.4866C25.9504 43.1701 26.3265 42.7941 26.3265 42.3302V39.7453C26.3265 39.2584 26.7248 38.8609 27.2116 38.8618L27.8849 38.8631C28.3481 38.864 28.7231 39.2398 28.7231 39.703V44.1536C28.7231 44.6174 29.0991 44.9934 29.5628 44.9934H32.8731C33.3368 44.9934 33.7128 44.6174 33.7128 44.1537V39.3859C33.7128 39.027 33.4219 38.7361 33.063 38.7361H32.1809C31.7173 38.7361 31.3413 38.3603 31.341 37.8967L31.3346 27.2995C31.3346 26.836 31.711 26.4596 32.1745 26.4596H32.9926C33.4565 26.4596 33.8325 26.8356 33.8325 27.2995V35.6049C33.8325 36.0688 34.2085 36.4448 34.6724 36.4448H35.4628C35.9267 36.4448 36.3027 36.8209 36.3027 37.2847V38.1019C36.3027 38.5656 36.6786 38.9416 37.1423 38.9418L52.9724 38.9483C53.4359 38.9483 53.8123 38.5719 53.8123 38.1084V31.869C53.8123 31.6362 53.6196 31.4623 53.3868 31.4583C52.9298 31.4504 52.5618 31.0774 52.5618 30.6186V29.8004C52.5618 29.3409 52.9309 28.9676 53.3888 28.9607ZM47.3151 29.8005C47.3151 29.337 47.6915 28.9606 48.155 28.9606H48.9731C49.4366 28.9606 49.813 29.337 49.813 29.8005V30.6186C49.813 31.082 49.4366 31.4584 48.9731 31.4584H48.155C47.6915 31.4584 47.3151 31.082 47.3151 30.6186V29.8005ZM38.8251 27.2932C38.8251 26.8298 39.2015 26.4534 39.665 26.4534H40.4831C40.9466 26.4534 41.323 26.8298 41.323 27.2932V28.1114C41.323 28.5748 40.9466 28.9512 40.4831 28.9512H39.665C39.2015 28.9512 38.8251 28.5748 38.8251 28.1114V27.2932Z" fill="white"/>
</svg>
