<svg width="129" height="128" viewBox="0 0 129 128" fill="none" xmlns="http://www.w3.org/2000/svg">
<rect x="2.08203" y="1.5" width="125" height="125" rx="6" fill="#111629"/>
<path d="M80.3231 82.2935H73.7027C72.7751 82.2935 72.0232 83.0454 72.0232 83.973V88.3948C72.0232 89.3224 72.7751 90.0744 73.7027 90.0744H80.3231C81.2507 90.0744 82.0026 89.3224 82.0026 88.3948V83.973C82.0026 83.0454 81.2507 82.2935 80.3231 82.2935Z" fill="white"/>
<path d="M106.196 57.9209C106.661 57.914 107.043 57.5689 107.043 57.1034V54.8534C107.043 53.6559 106.291 52.9062 105.363 52.9062H88.808C87.8511 52.9062 87.0733 52.1345 87.0659 51.1776L87.0536 49.5774C87.0465 48.6547 86.2965 47.9105 85.3738 47.9105H83.7438C82.8161 47.9105 82.064 47.1585 82.064 46.2308V39.5988C82.064 38.6746 81.3148 37.9253 80.3905 37.9253H78.7481C77.8204 37.9253 77.0683 38.6773 77.0683 39.605V41.2351C77.0683 42.1627 76.3163 42.9148 75.3886 42.9148H68.7629C67.8352 42.9148 67.0831 42.1627 67.0831 41.235V39.6051C67.0831 38.6774 66.331 37.9253 65.4033 37.9253H63.7671C62.8394 37.9253 62.0873 38.6774 62.0873 39.6051V43.1201C62.0873 44.0478 61.3353 44.7999 60.4076 44.7999H34.4335C33.5058 44.7999 32.7537 45.5519 32.7537 46.4797V51.2265C32.7537 52.1542 32.0017 52.9062 31.074 52.9062H28.797C27.8693 52.9062 27.1172 53.6583 27.1172 54.586V56.2222C27.1172 57.1499 26.3652 57.902 25.4374 57.902H23.8012C22.8735 57.902 22.1215 58.6541 22.1215 59.5818V62.4933C22.1215 63.421 22.8735 64.1731 23.8012 64.1731H25.4374C26.3652 64.1731 27.1172 64.9252 27.1172 65.8529V88.3928C27.1172 89.3205 27.8693 90.0725 28.7969 90.0725H35.4165C36.3497 90.0725 37.0962 89.3198 37.0962 88.3928L37.1087 79.4838C37.1087 78.5071 37.905 77.7169 38.8818 77.7169H40.3251C41.3009 77.7169 42.092 78.508 42.092 79.4838V84.6599C42.092 85.5876 42.8441 86.3397 43.7718 86.3397H50.3912C51.3189 86.3397 52.071 85.5876 52.071 84.6599V79.49C52.071 78.5164 52.8676 77.7213 53.8413 77.7231L55.1878 77.7257C56.1142 77.7275 56.8643 78.479 56.8643 79.4054V88.3068C56.8643 89.2343 57.6162 89.9863 58.5438 89.9863H65.1643C66.0918 89.9863 66.8437 89.2344 66.8437 88.3069V78.7713C66.8437 78.0535 66.2618 77.4716 65.544 77.4716H63.78C62.8526 77.4716 62.1007 76.7202 62.1002 75.7929L62.0873 54.5985C62.0873 53.6715 62.8401 52.9187 63.7671 52.9187H65.4033C66.331 52.9187 67.0831 53.6707 67.0831 54.5985V71.2093C67.0831 72.1371 67.8352 72.8892 68.7629 72.8892H70.3437C71.2715 72.8892 72.0235 73.6412 72.0235 74.569V76.2032C72.0235 77.1307 72.7752 77.8827 73.7027 77.8831L105.363 77.896C106.29 77.896 107.043 77.1432 107.043 76.2163V63.7376C107.043 63.2719 106.657 62.9241 106.192 62.916C105.278 62.9003 104.542 62.1544 104.542 61.2367V59.6004C104.542 58.6813 105.28 57.9346 106.196 57.9209ZM94.0483 59.6004C94.0483 58.6734 94.8011 57.9206 95.7281 57.9206H97.3643C98.2913 57.9206 99.0441 58.6734 99.0441 59.6004V61.2366C99.0441 62.1636 98.2913 62.9164 97.3643 62.9164H95.7281C94.8011 62.9164 94.0483 62.1636 94.0483 61.2366V59.6004ZM77.0683 54.586C77.0683 53.659 77.8211 52.9062 78.7481 52.9062H80.3843C81.3112 52.9062 82.064 53.659 82.064 54.586V56.2222C82.064 57.1492 81.3112 57.902 80.3843 57.902H78.7481C77.8211 57.902 77.0683 57.1492 77.0683 56.2222V54.586Z" fill="white"/>
</svg>
