<svg width="257" height="256" viewBox="0 0 257 256" fill="none" xmlns="http://www.w3.org/2000/svg">
<rect x="3.58203" y="3" width="250" height="250" rx="12" fill="#111629"/>
<path d="M160.064 164.587H146.823C144.968 164.587 143.464 166.091 143.464 167.946V176.79C143.464 178.645 144.968 180.149 146.823 180.149H160.064C161.919 180.149 163.423 178.645 163.423 176.79V167.946C163.423 166.091 161.919 164.587 160.064 164.587Z" fill="white"/>
<path d="M211.809 115.842C212.74 115.828 213.503 115.138 213.503 114.207V109.707C213.503 107.312 211.999 105.813 210.144 105.813H177.034C175.12 105.813 173.565 104.269 173.55 102.356L173.525 99.1552C173.511 97.3099 172.011 95.8215 170.165 95.8215H166.905C165.05 95.8215 163.546 94.3174 163.546 92.462V79.1982C163.546 77.3496 162.047 75.8511 160.199 75.8511H156.914C155.059 75.8511 153.555 77.3551 153.555 79.2105V82.4706C153.555 84.326 152.05 85.83 150.195 85.83H136.944C135.088 85.83 133.584 84.3259 133.584 82.4705V79.2106C133.584 77.3552 132.08 75.8511 130.225 75.8511H126.952C125.097 75.8511 123.593 77.3552 123.593 79.2106V86.2407C123.593 88.0961 122.088 89.6002 120.233 89.6002H68.2849C66.4294 89.6002 64.9253 91.1044 64.9253 92.9598V102.453C64.9253 104.309 63.4212 105.813 61.5658 105.813H57.0118C55.1564 105.813 53.6523 107.317 53.6523 109.173V112.445C53.6523 114.3 52.1482 115.804 50.2927 115.804H47.0203C45.1649 115.804 43.6608 117.309 43.6608 119.164V124.987C43.6608 126.843 45.1649 128.347 47.0203 128.347H50.2927C52.1482 128.347 53.6523 129.851 53.6523 131.706V176.786C53.6523 178.641 55.1564 180.145 57.0117 180.145H70.2508C72.1172 180.145 73.6103 178.64 73.6103 176.786L73.6352 158.968C73.6352 157.015 75.2278 155.434 77.1814 155.434H80.068C82.0197 155.434 83.6018 157.016 83.6018 158.968V169.32C83.6018 171.176 85.106 172.68 86.9614 172.68H100.2C102.056 172.68 103.56 171.176 103.56 169.32V158.981C103.56 157.033 105.153 155.443 107.1 155.447L109.793 155.452C111.646 155.455 113.146 156.959 113.146 158.811V176.614C113.146 178.469 114.65 179.973 116.505 179.973H129.746C131.601 179.973 133.105 178.469 133.105 176.614V157.543C133.105 156.107 131.941 154.944 130.506 154.944H126.978C125.123 154.944 123.619 153.441 123.618 151.586L123.593 109.197C123.593 107.343 125.098 105.838 126.952 105.838H130.225C132.08 105.838 133.584 107.342 133.584 109.197V142.419C133.584 144.275 135.088 145.779 136.944 145.779H140.105C141.961 145.779 143.465 147.283 143.465 149.138V152.407C143.465 154.262 144.968 155.766 146.823 155.767L210.144 155.793C211.998 155.793 213.503 154.287 213.503 152.433V127.476C213.503 126.544 212.732 125.849 211.801 125.833C209.973 125.801 208.501 124.309 208.501 122.474V119.201C208.501 117.363 209.978 115.87 211.809 115.842ZM187.515 119.201C187.515 117.347 189.02 115.842 190.874 115.842H194.147C196 115.842 197.506 117.347 197.506 119.201V122.474C197.506 124.328 196 125.833 194.147 125.833H190.874C189.02 125.833 187.515 124.328 187.515 122.474V119.201ZM153.555 109.173C153.555 107.319 155.06 105.813 156.914 105.813H160.186C162.04 105.813 163.546 107.319 163.546 109.173V112.445C163.546 114.299 162.04 115.804 160.186 115.804H156.914C155.06 115.804 153.555 114.299 153.555 112.445V109.173Z" fill="white"/>
</svg>
