<svg width="33" height="32" viewBox="0 0 33 32" fill="none" xmlns="http://www.w3.org/2000/svg">
<g clip-path="url(#clip0_8_419)">
<rect x="0.957031" y="0.375" width="31.25" height="31.25" rx="2" fill="#111629"/>
<path d="M20.5174 20.5732H18.8623C18.6304 20.5732 18.4424 20.7612 18.4424 20.9931V22.0986C18.4424 22.3305 18.6304 22.5185 18.8623 22.5185H20.5174C20.7493 22.5185 20.9372 22.3305 20.9372 22.0986V20.9931C20.9372 20.7612 20.7493 20.5732 20.5174 20.5732Z" fill="white"/>
<path d="M26.9855 14.4804C27.1018 14.4786 27.1972 14.3923 27.1972 14.276V13.7135C27.1972 13.4141 27.0092 13.2267 26.7773 13.2267H22.6385C22.3993 13.2267 22.2049 13.0337 22.203 12.7945L22.2 12.3945C22.1982 12.1638 22.0107 11.9778 21.78 11.9778H21.3725C21.1406 11.9778 20.9526 11.7897 20.9526 11.5578V9.89983C20.9526 9.66877 20.7652 9.48145 20.5342 9.48145H20.1236C19.8916 9.48145 19.7036 9.66945 19.7036 9.90137V10.3089C19.7036 10.5408 19.5156 10.7288 19.2837 10.7288H17.6273C17.3953 10.7288 17.2073 10.5408 17.2073 10.3089V9.90139C17.2073 9.66946 17.0193 9.48145 16.7874 9.48145H16.3783C16.1464 9.48145 15.9584 9.66946 15.9584 9.90139V10.7801C15.9584 11.0121 15.7704 11.2001 15.5384 11.2001H9.04493C8.813 11.2001 8.62499 11.3881 8.62499 11.62V12.8067C8.62499 13.0387 8.43697 13.2267 8.20504 13.2267H7.6358C7.40387 13.2267 7.21586 13.4147 7.21586 13.6466V14.0557C7.21586 14.2876 7.02784 14.4756 6.79592 14.4756H6.38686C6.15493 14.4756 5.96692 14.6636 5.96692 14.8956V15.6235C5.96692 15.8554 6.15493 16.0434 6.38686 16.0434H6.79592C7.02784 16.0434 7.21586 16.2314 7.21586 16.4633V22.0983C7.21586 22.3302 7.40387 22.5182 7.63579 22.5182H9.29067C9.52397 22.5182 9.71061 22.3301 9.71061 22.0983L9.71373 19.8711C9.71373 19.6269 9.9128 19.4294 10.157 19.4294H10.5178C10.7618 19.4294 10.9596 19.6271 10.9596 19.8711V21.1651C10.9596 21.397 11.1476 21.585 11.3795 21.585H13.0344C13.2663 21.585 13.4543 21.397 13.4543 21.1651V19.8726C13.4543 19.6292 13.6535 19.4304 13.8969 19.4309L14.2335 19.4316C14.4651 19.432 14.6526 19.6199 14.6526 19.8515V22.0768C14.6526 22.3087 14.8406 22.4967 15.0725 22.4967H16.7276C16.9595 22.4967 17.1475 22.3087 17.1475 22.0768V19.6929C17.1475 19.5135 17.002 19.368 16.8226 19.368H16.3815C16.1497 19.368 15.9617 19.1802 15.9616 18.9483L15.9584 13.6497C15.9584 13.418 16.1466 13.2298 16.3783 13.2298H16.7874C17.0193 13.2298 17.2073 13.4178 17.2073 13.6497V17.8025C17.2073 18.0344 17.3954 18.2224 17.6273 18.2224H18.0225C18.2544 18.2224 18.4424 18.4104 18.4424 18.6424V19.0509C18.4424 19.2828 18.6304 19.4708 18.8622 19.4709L26.7773 19.4741C27.009 19.4741 27.1972 19.2859 27.1972 19.0542V15.9345C27.1972 15.8181 27.1009 15.7311 26.9845 15.7291C26.756 15.7252 26.572 15.5387 26.572 15.3093V14.9002C26.572 14.6704 26.7565 14.4838 26.9855 14.4804ZM23.9486 14.9002C23.9486 14.6685 24.1368 14.4803 24.3686 14.4803H24.7776C25.0094 14.4803 25.1976 14.6685 25.1976 14.9002V15.3093C25.1976 15.541 25.0094 15.7292 24.7776 15.7292H24.3686C24.1368 15.7292 23.9486 15.541 23.9486 15.3093V14.9002ZM19.7036 13.6466C19.7036 13.4149 19.8918 13.2267 20.1236 13.2267H20.5326C20.7644 13.2267 20.9526 13.4149 20.9526 13.6466V14.0557C20.9526 14.2874 20.7644 14.4756 20.5326 14.4756H20.1236C19.8918 14.4756 19.7036 14.2874 19.7036 14.0557V13.6466Z" fill="white"/>
</g>
<defs>
<clipPath id="clip0_8_419">
<rect width="32" height="32" fill="white" transform="translate(0.582031)"/>
</clipPath>
</defs>
</svg>
