<svg width="65" height="64" viewBox="0 0 65 64" fill="none" xmlns="http://www.w3.org/2000/svg">
<rect x="0.582031" width="64" height="64" rx="32" fill="#0372FF"/>
<path d="M40.7383 41.478H37.3081C36.8275 41.478 36.4379 41.8676 36.4379 42.3482V44.6393C36.4379 45.1199 36.8275 45.5095 37.3081 45.5095H40.7383C41.2189 45.5095 41.6085 45.1199 41.6085 44.6393V42.3482C41.6085 41.8676 41.2189 41.478 40.7383 41.478Z" fill="white"/>
<path d="M54.1432 28.8505C54.3843 28.8469 54.582 28.6681 54.582 28.4269V27.2612C54.582 26.6407 54.1924 26.2523 53.7117 26.2523H45.1341C44.6383 26.2523 44.2354 25.8524 44.2315 25.3566L44.2251 24.5275C44.2214 24.0494 43.8329 23.6639 43.3548 23.6639H42.5103C42.0296 23.6639 41.6399 23.2742 41.6399 22.7935V19.3573C41.6399 18.8785 41.2517 18.4902 40.7728 18.4902H39.9218C39.4412 18.4902 39.0515 18.8799 39.0515 19.3605V20.2051C39.0515 20.6858 38.6619 21.0754 38.1812 21.0754H34.7482C34.2675 21.0754 33.8779 20.6858 33.8779 20.2051V19.3606C33.8779 18.8799 33.4882 18.4902 33.0075 18.4902H32.1598C31.6791 18.4902 31.2894 18.8799 31.2894 19.3606V21.1818C31.2894 21.6625 30.8998 22.0521 30.4191 22.0521H16.9612C16.4806 22.0521 16.0909 22.4418 16.0909 22.9225V25.3819C16.0909 25.8626 15.7012 26.2523 15.2206 26.2523H14.0408C13.5601 26.2523 13.1705 26.6419 13.1705 27.1226V27.9704C13.1705 28.451 12.7808 28.8407 12.3001 28.8407H11.4524C10.9717 28.8407 10.582 29.2304 10.582 29.711V31.2196C10.582 31.7003 10.9717 32.0899 11.4524 32.0899H12.3001C12.7808 32.0899 13.1705 32.4796 13.1705 32.9603V44.6388C13.1705 45.1195 13.5601 45.5091 14.0408 45.5091H17.4705C17.954 45.5091 18.3409 45.1191 18.3409 44.6388L18.3473 40.0228C18.3473 39.5167 18.7599 39.1074 19.266 39.1074H20.0138C20.5194 39.1074 20.9293 39.5172 20.9293 40.0228V42.7047C20.9293 43.1854 21.319 43.5751 21.7996 43.5751H25.2294C25.71 43.5751 26.0997 43.1854 26.0997 42.7047V40.0261C26.0997 39.5216 26.5125 39.1096 27.0169 39.1106L27.7146 39.1119C28.1946 39.1128 28.5832 39.5022 28.5832 39.9822V44.5943C28.5832 45.0749 28.9728 45.4644 29.4534 45.4644H32.8837C33.3642 45.4644 33.7538 45.0749 33.7538 44.5943V39.6536C33.7538 39.2817 33.4523 38.9803 33.0804 38.9803H32.1664C31.686 38.9803 31.2964 38.5909 31.2961 38.1105L31.2894 27.1291C31.2894 26.6488 31.6795 26.2587 32.1598 26.2587H33.0075C33.4882 26.2587 33.8779 26.6484 33.8779 27.1291V35.7356C33.8779 36.2163 34.2676 36.606 34.7482 36.606H35.5673C36.048 36.606 36.4377 36.9956 36.4377 37.4763V38.3231C36.4377 38.8036 36.8271 39.1932 37.3077 39.1934L53.7117 39.2002C54.192 39.2002 54.582 38.8101 54.582 38.3298V31.8643C54.582 31.623 54.3823 31.4428 54.1411 31.4386C53.6676 31.4304 53.2862 31.044 53.2862 30.5685V29.7207C53.2862 29.2445 53.6687 28.8576 54.1432 28.8505ZM47.8493 29.7207C47.8493 29.2404 48.2394 28.8504 48.7196 28.8504H49.5674C50.0477 28.8504 50.4377 29.2404 50.4377 29.7207V30.5685C50.4377 31.0488 50.0477 31.4388 49.5674 31.4388H48.7196C48.2393 31.4388 47.8493 31.0488 47.8493 30.5685V29.7207ZM39.0515 27.1226C39.0515 26.6423 39.4416 26.2523 39.9218 26.2523H40.7696C41.2499 26.2523 41.6399 26.6423 41.6399 27.1226V27.9704C41.6399 28.4507 41.2499 28.8407 40.7696 28.8407H39.9218C39.4415 28.8407 39.0515 28.4507 39.0515 27.9704V27.1226Z" fill="white"/>
</svg>
