<svg width="572" height="120" viewBox="0 0 572 120" fill="none" xmlns="http://www.w3.org/2000/svg">
<path d="M402.969 91.0216V83.8798C402.969 81.9077 404.567 80.309 406.54 80.309H456.531C458.503 80.309 460.102 78.7103 460.102 76.7382C460.102 74.7661 458.503 73.1673 456.531 73.1673H413.681C411.709 73.1673 410.11 71.5686 410.11 69.5965C410.11 67.6244 408.512 66.0257 406.54 66.0257C404.567 66.0257 402.969 64.4269 402.969 62.4548V48.1715C402.969 46.1994 404.567 44.6007 406.54 44.6007C408.512 44.6007 410.11 43.0019 410.11 41.0298C410.11 39.0577 411.709 37.459 413.681 37.459H477.956C479.928 37.459 481.527 39.0577 481.527 41.0298V48.1715C481.527 50.1436 479.928 51.7423 477.956 51.7423H427.965C425.992 51.7423 424.394 53.341 424.394 55.3132C424.394 57.2853 425.992 58.884 427.965 58.884H470.815C472.787 58.884 474.385 60.4827 474.385 62.4548C474.385 64.4269 475.984 66.0257 477.956 66.0257C479.928 66.0257 481.527 67.6244 481.527 69.5965V83.88C481.527 85.8521 479.928 87.4508 477.956 87.4508C475.984 87.4508 474.385 89.0495 474.385 91.0216C474.385 92.9938 472.787 94.5925 470.815 94.5925H406.54C404.567 94.5925 402.969 92.9938 402.969 91.0216Z" fill="#111629"/>
<path d="M320.741 91.0216C320.741 89.0495 319.143 87.4508 317.17 87.4508C315.198 87.4508 313.6 85.8521 313.6 83.88V41.0298C313.6 39.0577 315.198 37.459 317.17 37.459H331.454C333.426 37.459 335.025 39.0577 335.025 41.0298V76.7382C335.025 78.7103 336.623 80.309 338.595 80.309H367.162C369.134 80.309 370.733 78.7103 370.733 76.7382V41.0298C370.733 39.0577 372.332 37.459 374.304 37.459H388.587C390.559 37.459 392.158 39.0577 392.158 41.0298V83.88C392.158 85.8521 390.559 87.4508 388.587 87.4508C386.615 87.4508 385.016 89.0495 385.016 91.0216C385.016 92.9938 383.418 94.5925 381.446 94.5925H324.312C322.34 94.5925 320.741 92.9938 320.741 91.0216Z" fill="#111629"/>
<path d="M563.839 40.9613C563.839 38.9839 562.236 37.3809 560.258 37.3809H495.81C493.833 37.3809 492.229 38.9839 492.229 40.9613V91.0877C492.229 93.0652 493.833 94.6682 495.81 94.6682H560.258C562.236 94.6682 563.839 93.0652 563.839 91.0877C563.839 89.1103 565.442 87.5073 567.419 87.5073C569.397 87.5073 571 85.9043 571 83.9268V48.1222C571 46.1448 569.397 44.5418 567.419 44.5418C565.442 44.5418 563.839 42.9388 563.839 40.9613ZM545.936 80.3464H517.293C515.315 80.3464 513.712 78.7434 513.712 76.7659V55.2832C513.712 53.3057 515.315 51.7027 517.293 51.7027H545.936C547.914 51.7027 549.517 53.3057 549.517 55.2832V76.7659C549.517 78.7434 547.914 80.3464 545.936 80.3464Z" fill="#111629"/>
<path d="M210.772 72.6701V81.4686C210.772 83.8982 208.816 85.8678 206.402 85.8678C203.989 85.8678 202.032 87.8375 202.032 90.2671C202.032 92.6967 200.076 94.6663 197.662 94.6663H180.182C177.768 94.6663 175.812 92.6967 175.812 90.2671C175.812 87.8375 177.768 85.8678 180.182 85.8678H188.922C191.336 85.8678 193.292 83.8982 193.292 81.4686C193.292 79.0389 191.336 77.0693 188.922 77.0693H180.182C177.768 77.0693 175.812 75.0997 175.812 72.6701V63.8716C175.812 61.442 177.768 59.4723 180.182 59.4723C182.595 59.4723 184.552 57.5027 184.552 55.0731C184.552 52.6434 186.508 50.6738 188.922 50.6738H206.402C208.816 50.6738 210.772 52.6434 210.772 55.0731C210.772 57.5027 208.816 59.4723 206.402 59.4723H197.662C195.249 59.4723 193.292 61.442 193.292 63.8716C193.292 66.3012 195.249 68.2708 197.662 68.2708H206.402C208.816 68.2708 210.772 70.2405 210.772 72.6701Z" fill="#111629"/>
<path d="M219.27 89.8584V55.486C219.27 53.1131 221.193 51.1895 223.566 51.1895H232.159C234.532 51.1895 236.456 53.1131 236.456 55.486C236.456 57.8589 238.379 59.7825 240.752 59.7825C243.125 59.7825 245.049 57.8589 245.049 55.486C245.049 53.1131 246.972 51.1895 249.345 51.1895C251.718 51.1895 253.642 53.1131 253.642 55.486V64.0791C253.642 66.452 251.718 68.3756 249.345 68.3756H240.752C238.379 68.3756 236.456 70.2992 236.456 72.6721V89.8584C236.456 92.2313 234.532 94.1549 232.159 94.1549H223.566C221.193 94.1549 219.27 92.2313 219.27 89.8584Z" fill="#111629"/>
<path d="M282.406 68.3756C284.779 68.3756 286.703 66.452 286.703 64.0791C286.703 61.7062 284.779 59.7826 282.406 59.7826C280.034 59.7826 278.11 61.7062 278.11 64.0791C278.11 66.452 280.034 68.3756 282.406 68.3756ZM303.889 64.0791V72.6722C303.889 75.0451 301.966 76.9687 299.593 76.9687H282.407C280.034 76.9687 278.11 78.8923 278.11 81.2652C278.11 83.6381 280.034 85.5619 282.407 85.5619H299.593C301.966 85.5619 303.889 87.4855 303.889 89.8584C303.889 92.2313 301.966 94.1549 299.593 94.1549H273.813C271.441 94.1549 269.517 92.2313 269.517 89.8584C269.517 87.4855 267.593 85.5619 265.22 85.5619C262.848 85.5619 260.924 83.6382 260.924 81.2653V64.0791C260.924 61.7062 262.847 59.7825 265.22 59.7825C267.593 59.7825 269.517 57.8589 269.517 55.486C269.517 53.1131 271.441 51.1895 273.813 51.1895H291C293.372 51.1895 295.296 53.1131 295.296 55.486C295.296 57.8589 297.22 59.7825 299.593 59.7825C301.966 59.7825 303.889 61.7062 303.889 64.0791Z" fill="#111629"/>
<path d="M159.741 54.193C159.741 47.3504 154.564 41.9893 147.957 41.9893H127.592C126.405 38.6453 123.745 35.9915 120.407 34.8015V30.1723C120.407 23.6807 115.124 18.4029 108.632 18.4029H106.047C101.468 18.4029 97.4903 21.0269 95.5387 24.8528C93.5901 21.0269 89.6124 18.4029 85.0337 18.4029H82.4574C81.7969 18.4029 81.1558 18.4832 80.5236 18.5885V17.2426C80.5236 13.018 78.8129 8.88865 75.8259 5.90762C72.8003 2.879 68.7721 1.20703 64.4879 1.20703H58.0796C53.7925 1.20703 49.7613 2.879 46.7476 5.90171C43.7577 8.88274 42.044 13.0181 42.044 17.2427V22.4308C40.5059 23.1962 39.0555 24.1515 37.8105 25.4003C36.6711 26.5368 35.783 27.876 35.0393 29.2891C34.828 29.278 34.6302 29.2263 34.416 29.2263H29.528C23.0304 29.2263 17.7437 34.51 17.7437 41.0075V42.3523C13.7482 43.3697 10.5649 46.434 9.37481 50.3611C4.53439 51.8248 1 56.3291 1 61.6426V66.2242C1 71.3532 4.29043 75.7206 8.86904 77.339V107.006C8.86904 113.504 14.1558 118.794 20.6533 118.794H31.0749C35.8172 118.794 39.9139 115.979 41.7822 111.939C43.2221 112.564 44.8108 112.915 46.4799 112.915H59.1477C60.0253 112.915 60.8822 112.82 61.7062 112.635C63.7293 116.229 67.5791 118.657 71.9851 118.657H84.6559C87.1193 118.657 89.4042 117.892 91.2978 116.594C93.2241 117.967 95.5641 118.794 98.1032 118.794H108.528C115.025 118.794 120.312 113.51 120.312 107.012V100.045C120.312 99.8956 120.273 99.757 120.268 99.609L147.954 99.6224C154.454 99.6224 159.741 94.3327 159.741 87.8352V68.1878C159.741 66.3492 159.247 64.5404 158.343 62.9636C159.247 61.3868 159.741 59.578 159.741 57.7394V54.193Z" fill="#111629"/>
<path d="M69.3525 12.3678C68.0587 11.0744 66.3047 10.3477 64.4755 10.3477H58.0692C56.2401 10.3477 54.4855 11.0742 53.1922 12.3678C51.8985 13.6611 51.1719 15.4153 51.1719 17.2446V23.6513C51.1719 24.0116 51.2223 24.3649 51.2776 24.7164H59.8342C61.8168 24.7164 63.7182 25.504 65.12 26.906C66.0055 27.7922 66.6132 28.8891 66.965 30.0687C67.8505 29.7254 68.6681 29.2123 69.3525 28.5279C70.6457 27.2346 71.3723 25.4802 71.3723 23.6511V17.2445C71.3723 15.4154 70.6457 13.6612 69.3525 12.3678Z" fill="#CCD4DF"/>
<path d="M108.534 97.3965H98.1095C96.6489 97.3965 95.4648 98.5805 95.4648 100.041V107.004C95.4648 108.465 96.6489 109.649 98.1095 109.649H108.534C109.995 109.649 111.179 108.465 111.179 107.004V100.041C111.179 98.5805 109.995 97.3965 108.534 97.3965Z" fill="white"/>
<path d="M149.379 59.0282C150.064 59.0466 150.6 58.4261 150.6 57.74V54.197C150.6 52.3114 149.416 51.1309 147.955 51.1309H121.887C120.38 51.1309 119.155 49.9158 119.143 48.4092L119.124 45.8888C119.112 44.4361 117.931 43.2644 116.479 43.2644H113.912C112.451 43.2644 111.267 42.0802 111.267 40.6193V30.1762C111.267 28.7209 110.087 27.541 108.632 27.541H106.046C104.585 27.541 103.4 28.7255 103.4 30.1866V32.7527C103.4 34.2135 102.216 35.3977 100.755 35.3977H90.3222C88.8613 35.3977 87.6771 34.2135 87.6771 32.7527V30.1861C87.6771 28.7252 86.4929 27.541 85.032 27.541H82.4555C80.9946 27.541 79.8104 28.7252 79.8104 30.1861V35.721C79.8104 37.1819 78.6262 38.3661 77.1653 38.3661H70.4507C68.9306 38.3661 67.6982 39.5986 67.6982 41.119C67.6982 42.1844 68.3153 43.1514 69.2829 43.5965C70.5822 44.1938 71.4924 45.5005 71.4924 47.0165V47.3647C71.4924 49.4447 69.8063 51.1308 67.7263 51.1308H63.1144H52.4517H44.0348L37.1383 51.1309C35.0583 51.1309 33.372 49.4447 33.372 47.3646V47.0164C33.372 45.5004 34.2828 44.1937 35.582 43.5964C36.5498 43.1513 37.1667 42.1843 37.1667 41.1189C37.1667 39.5985 35.9344 38.366 34.4137 38.366H29.527C28.0661 38.366 26.8818 39.5503 26.8818 41.0112V48.4857C26.8818 49.9466 25.6976 51.1309 24.2366 51.1309H20.6514C19.1906 51.1309 18.0064 52.3151 18.0064 53.7759V56.3523C18.0064 57.8132 16.8221 58.9974 15.3613 58.9974H12.7847C11.3239 58.9974 10.1396 60.1816 10.1396 61.6425V66.2272C10.1396 67.6881 11.3239 68.8723 12.7847 68.8723H15.3613C16.8221 68.8723 18.0064 70.0565 18.0064 71.5174V107.01C18.0064 108.471 19.1906 109.655 20.6514 109.655H31.0749C32.5343 109.655 33.7179 108.473 33.72 107.014L33.7397 92.9873C33.7419 91.4468 34.9912 90.1992 36.5317 90.1992H41.05C42.5868 90.1992 43.8326 91.4451 43.8326 92.9818V101.132C43.8326 102.593 45.0168 103.777 46.4777 103.777H59.1471C60.6079 103.777 61.7921 102.593 61.7921 101.132V92.9914C61.7921 91.4582 63.0466 90.2062 64.5797 90.2091L66.6998 90.2131C68.1587 90.2158 69.3399 91.3993 69.3399 92.8581V106.875C69.3399 108.335 70.5239 109.519 71.9845 109.519H84.6555C86.116 109.519 87.3 108.335 87.3 106.875V91.8595C87.3 90.7293 86.3838 89.813 85.2535 89.813H82.4757C81.0155 89.813 79.8315 88.6297 79.8306 87.1694L79.8103 53.7971C79.8094 52.3356 80.9939 51.1504 82.4554 51.1504H85.032C86.4928 51.1504 87.677 52.3347 87.677 53.7955V79.952C87.677 81.4129 88.8613 82.5971 90.3222 82.5971H92.811C94.2721 82.5971 95.4566 83.7816 95.4566 85.2428V87.8158C95.4566 89.2762 96.6401 90.4602 98.1005 90.4608L147.953 90.4812C149.415 90.4818 150.6 89.2974 150.6 87.8362V68.1866C150.6 67.4974 150.062 66.8755 149.373 66.8924C147.882 66.929 146.661 65.7311 146.661 64.2485V61.6718C146.661 60.187 147.886 58.988 149.379 59.0282ZM111.267 56.3524C111.267 57.8121 110.082 58.9975 108.622 58.9975H106.046C104.586 58.9975 103.4 57.8121 103.4 56.3524V53.776C103.4 52.3163 104.586 51.1309 106.046 51.1309H108.622C110.082 51.1309 111.267 52.3163 111.267 53.776V56.3524ZM138.005 64.2484C138.005 65.7081 136.819 66.8934 135.36 66.8934H132.783C131.324 66.8934 130.138 65.7081 130.138 64.2484V61.6718C130.138 60.2121 131.324 59.0267 132.783 59.0267H135.36C136.819 59.0267 138.005 60.2121 138.005 61.6718V64.2484Z" fill="white"/>
<path d="M55.5497 29.8418H49.1434C47.3144 29.8418 45.5603 30.5683 44.2669 31.8617C42.9737 33.155 42.2471 34.9091 42.2471 36.7382V42.6343C42.2471 44.4937 43.7544 46.001 45.6138 46.001H59.0794C60.9388 46.001 62.4461 44.4936 62.4461 42.6342V36.7382C62.4461 34.9092 61.7195 33.1551 60.4262 31.8617C59.1329 30.5684 57.3788 29.8418 55.5497 29.8418Z" fill="#97A1C0"/>
</svg>
