<svg width="257" height="257" viewBox="0 0 257 257" fill="none" xmlns="http://www.w3.org/2000/svg">
<path d="M165.645 171.672H150.053C147.869 171.672 146.098 173.446 146.098 175.635V186.068C146.098 188.256 147.869 190.03 150.053 190.03H165.645C167.83 190.03 169.6 188.256 169.6 186.068V175.635C169.6 173.446 167.83 171.672 165.645 171.672Z" fill="white"/>
<path d="M226.587 114.146C227.683 114.13 228.582 113.315 228.582 112.217V106.909C228.582 104.084 226.811 102.315 224.626 102.315H185.637C183.383 102.315 181.552 100.494 181.534 98.2364L181.505 94.4608C181.488 92.2839 179.722 90.5281 177.549 90.5281H173.71C171.525 90.5281 169.754 88.7538 169.754 86.565V70.918C169.754 68.7373 167.99 66.9695 165.813 66.9695H161.945C159.76 66.9695 157.989 68.7438 157.989 70.9325V74.7784C157.989 76.9671 156.218 78.7414 154.033 78.7414H138.428C136.243 78.7414 134.472 76.967 134.472 74.7782V70.9327C134.472 68.7439 132.701 66.9695 130.516 66.9695H126.663C124.478 66.9695 122.707 68.7439 122.707 70.9327V79.2259C122.707 81.4146 120.935 83.189 118.751 83.189H57.5784C55.3936 83.189 53.6224 84.9634 53.6224 87.1522V98.3516C53.6224 100.54 51.8512 102.315 49.6663 102.315H44.3037C42.1189 102.315 40.3477 104.089 40.3477 106.278V110.138C40.3477 112.327 38.5765 114.101 36.3916 114.101H32.5381C30.3532 114.101 28.582 115.876 28.582 118.065V124.934C28.582 127.123 30.3532 128.897 32.5381 128.897H36.3916C38.5765 128.897 40.3477 130.672 40.3477 132.86V186.04C40.3477 188.229 42.1188 190.003 44.3036 190.003H59.8934C62.0912 190.003 63.8495 188.227 63.8495 186.04L63.8788 165.021C63.8788 162.716 65.7542 160.852 68.0546 160.852H71.4538C73.752 160.852 75.6151 162.718 75.6151 165.021V177.233C75.6151 179.422 77.3863 181.196 79.5712 181.196H95.1608C97.3457 181.196 99.1169 179.422 99.1169 177.233V165.035C99.1169 162.738 100.993 160.862 103.286 160.866L106.457 160.873C108.639 160.877 110.406 162.65 110.406 164.836V185.837C110.406 188.025 112.177 189.8 114.361 189.8H129.953C132.138 189.8 133.908 188.026 133.908 185.837V163.339C133.908 161.646 132.538 160.273 130.848 160.273H126.693C124.509 160.273 122.738 158.5 122.737 156.312L122.707 106.307C122.707 104.12 124.48 102.344 126.663 102.344H130.516C132.701 102.344 134.472 104.118 134.472 106.307V145.498C134.472 147.687 136.244 149.461 138.428 149.461H142.151C144.336 149.461 146.108 151.236 146.108 153.425V157.281C146.108 159.469 147.878 161.243 150.062 161.244L224.626 161.274C226.809 161.274 228.582 159.498 228.582 157.311V127.87C228.582 126.771 227.674 125.95 226.578 125.931C224.425 125.894 222.692 124.134 222.692 121.969V118.109C222.692 115.94 224.43 114.178 226.587 114.146ZM197.979 118.109C197.979 115.922 199.752 114.145 201.935 114.145H205.788C207.971 114.145 209.744 115.922 209.744 118.109V121.969C209.744 124.156 207.971 125.932 205.788 125.932H201.935C199.752 125.932 197.979 124.156 197.979 121.969V118.109ZM157.989 106.278C157.989 104.091 159.762 102.315 161.945 102.315H165.798C167.981 102.315 169.754 104.091 169.754 106.278V110.138C169.754 112.325 167.981 114.101 165.798 114.101H161.945C159.762 114.101 157.989 112.325 157.989 110.138V106.278Z" fill="white"/>
</svg>
