<svg width="257" height="256" viewBox="0 0 257 256" fill="none" xmlns="http://www.w3.org/2000/svg">
<path d="M228.582 108.928C228.582 99.9711 221.785 92.934 213.068 92.934H186.279C184.76 88.5357 181.241 85.0171 176.843 83.4977V77.4202C176.843 68.8636 169.886 61.9863 161.409 61.9863H157.97C151.973 61.9863 146.695 65.425 144.136 70.5429C141.577 65.5049 136.379 61.9863 130.301 61.9863H126.943C118.786 61.9863 112.149 68.3038 111.509 76.2206H66.167C57.6104 76.2206 50.6532 83.1779 50.6532 91.7344V93.4937C45.3753 94.8532 41.217 98.8516 39.6176 104.05C33.2202 105.969 28.582 111.886 28.582 118.844V124.841C28.582 131.559 32.9003 137.316 38.8979 139.475V178.5C38.8979 187.056 45.8551 194.014 54.4117 194.014H68.0862C74.0039 194.014 79.1218 190.735 81.7608 185.857C82.9603 186.177 84.1598 186.257 85.4393 186.257H99.1138C100.313 186.257 101.433 186.097 102.472 185.857C105.111 190.575 110.149 193.774 115.987 193.774H129.742C133.02 193.774 135.979 192.734 138.458 191.055C141.017 192.894 144.056 193.934 147.415 193.934H161.089C169.646 193.934 176.603 186.976 176.603 178.42V169.223C176.603 169.223 176.603 168.824 176.603 168.584H213.068C221.625 168.584 228.582 161.626 228.582 153.15V127.32C228.582 124.841 227.862 122.442 226.663 120.443C227.862 118.444 228.582 116.045 228.582 113.566V108.928Z" fill="#111629"/>
<path d="M161.248 165.705H147.494C145.574 165.705 143.975 167.224 143.975 169.223V178.42C143.975 180.339 145.494 181.938 147.494 181.938H161.248C163.167 181.938 164.767 180.419 164.767 178.42V169.223C164.767 167.304 163.247 165.705 161.248 165.705Z" fill="white"/>
<path d="M214.827 115.245C215.787 115.245 216.587 114.525 216.587 113.566V108.927C216.587 106.448 215.067 104.929 213.068 104.929H178.762C176.763 104.929 175.163 103.33 175.163 101.331V98.0518C175.163 96.1326 173.564 94.6132 171.645 94.6132H168.286C166.367 94.6132 164.767 93.0938 164.767 91.0946V77.2602C164.767 75.3409 163.248 73.8215 161.329 73.8215H157.89C155.971 73.8215 154.372 75.3409 154.372 77.3401V80.6988C154.372 82.618 152.852 84.2174 150.853 84.2174H137.098C135.179 84.2174 133.58 82.698 133.58 80.6988V77.3401C133.58 75.4209 132.06 73.8215 130.061 73.8215H126.703C124.783 73.8215 123.184 75.3409 123.184 77.3401V84.6172C123.184 86.5364 121.665 88.1358 119.665 88.1358H66.1668C64.2476 88.1358 62.6482 89.6552 62.6482 91.6544V101.49C62.6482 103.41 61.1288 105.009 59.1296 105.009H54.4115C52.4923 105.009 50.8929 106.528 50.8929 108.528V111.886C50.8929 113.806 49.3735 115.405 47.3743 115.405H44.0157C42.0964 115.405 40.4971 116.924 40.4971 118.923V124.921C40.4971 126.84 42.0165 128.44 44.0157 128.44H47.3743C49.2936 128.44 50.8929 129.959 50.8929 131.958V178.66C50.8929 180.579 52.4123 182.178 54.4115 182.178H68.086C70.0053 182.178 71.6046 180.579 71.6046 178.66V160.187C71.6046 158.188 73.284 156.508 75.2832 156.508H78.242C80.2412 156.508 81.9205 158.108 81.9205 160.187V170.903C81.9205 172.822 83.4399 174.421 85.4391 174.421H99.1136C101.033 174.421 102.632 172.902 102.632 170.903V160.187C102.632 158.188 104.312 156.508 106.311 156.508H109.11C111.029 156.508 112.548 158.108 112.548 160.027V178.5C112.548 180.419 114.068 182.018 116.067 182.018H129.821C131.741 182.018 133.34 180.499 133.34 178.5V158.748C133.34 157.228 132.14 156.029 130.621 156.029H126.942C125.023 156.029 123.424 154.509 123.424 152.59V108.368C123.424 106.448 124.943 104.849 126.863 104.849H130.221C132.14 104.849 133.74 106.369 133.74 108.368V142.754C133.74 144.673 135.259 146.273 137.258 146.273H140.537C142.456 146.273 144.056 147.792 144.056 149.791V153.15C144.056 155.069 145.575 156.668 147.494 156.668H213.068C214.987 156.668 216.587 155.149 216.587 153.23V127.4C216.587 126.44 215.787 125.721 214.827 125.721C212.908 125.721 211.389 124.121 211.389 122.202V118.844C211.389 116.924 212.908 115.405 214.827 115.325V115.245ZM189.637 118.764C189.637 116.844 191.237 115.245 193.156 115.245H196.515C198.434 115.245 200.033 116.844 200.033 118.764V122.122C200.033 124.041 198.434 125.641 196.515 125.641H193.156C191.237 125.641 189.637 124.041 189.637 122.122V118.764ZM154.451 108.368C154.451 106.448 156.051 104.849 157.97 104.849H161.329C163.248 104.849 164.847 106.448 164.847 108.368V111.726C164.847 113.646 163.328 115.245 161.329 115.245H157.97C156.051 115.245 154.451 113.646 154.451 111.726V108.368Z" fill="white"/>
</svg>
