<svg width="441" height="85" viewBox="0 0 441 85" fill="none" xmlns="http://www.w3.org/2000/svg">
<path d="M90.7726 69.8223H80.8214C79.4271 69.8223 78.2969 70.9548 78.2969 72.3518V79.0117C78.2969 80.4088 79.4271 81.5413 80.8214 81.5413H90.7726C92.1669 81.5413 93.2971 80.4088 93.2971 79.0117V72.3518C93.2971 70.9548 92.1669 69.8223 90.7726 69.8223Z" fill="#111629"/>
<path d="M129.661 33.1159C130.361 33.1054 130.934 32.5857 130.934 31.8846V28.4959C130.934 26.6923 129.804 25.5632 128.409 25.5632H103.525C102.087 25.5632 100.918 24.4008 100.907 22.9597L100.888 20.5495C100.878 19.1599 99.7503 18.039 98.3634 18.039H95.9133C94.5188 18.039 93.3884 16.9063 93.3884 15.5091V5.52057C93.3884 4.12851 92.2622 3 90.8729 3H88.4041C87.0097 3 85.8793 4.13265 85.8793 5.52986V7.98491C85.8793 9.38211 84.7489 10.5148 83.3544 10.5148H73.3952C72.0007 10.5148 70.8703 9.38207 70.8703 7.98482V5.52995C70.8703 4.1327 69.7398 3 68.3454 3H65.8859C64.4915 3 63.3611 4.1327 63.3611 5.52995V10.824C63.3611 12.2213 62.2306 13.354 60.8362 13.354H21.7941C20.3996 13.354 19.2692 14.4867 19.2692 15.8839V23.0332C19.2692 24.4305 18.1387 25.5632 16.7443 25.5632H13.3217C11.9273 25.5632 10.7968 26.6959 10.7968 28.0931V30.5575C10.7968 31.9547 9.66638 33.0874 8.27192 33.0874H5.8125C4.41804 33.0874 3.2876 34.2201 3.2876 35.6174V40.0025C3.2876 41.3998 4.41804 42.5325 5.8125 42.5325H8.27192C9.66638 42.5325 10.7968 43.6652 10.7968 45.0624V79.0103C10.7968 80.4075 11.9272 81.5402 13.3216 81.5402H23.2715C24.6743 81.5402 25.7964 80.4065 25.7964 79.0103L25.8152 65.5923C25.8152 64.1212 27.0121 62.9312 28.4803 62.9312H30.6498C32.1166 62.9312 33.3057 64.1226 33.3057 65.5923V73.3882C33.3057 74.7854 34.4361 75.9181 35.8306 75.9181H45.7804C47.1749 75.9181 48.3053 74.7854 48.3053 73.3882V65.6017C48.3053 64.1352 49.5027 62.9377 50.9663 62.9405L52.9902 62.9444C54.3828 62.9471 55.5102 64.079 55.5102 65.4743V78.8808C55.5102 80.2778 56.6404 81.4103 58.0346 81.4103H67.986C69.3802 81.4103 70.5104 80.2779 70.5104 78.8809V64.5191C70.5104 63.4381 69.6358 62.5617 68.5569 62.5617H65.9052C64.5114 62.5617 63.3812 61.4299 63.3803 60.0333L63.3611 28.1119C63.3611 26.7157 64.4926 25.5819 65.8859 25.5819H68.3454C69.7398 25.5819 70.8703 26.7146 70.8703 28.1119V53.1299C70.8703 54.5272 72.0007 55.6599 73.3952 55.6599H75.7714C77.1658 55.6599 78.2963 56.7927 78.2963 58.1899V60.6514C78.2963 62.0483 79.4262 63.1808 80.8202 63.1814L128.409 63.2009C129.803 63.2009 130.934 62.0671 130.934 60.671V41.8766C130.934 41.1752 130.355 40.6513 129.655 40.6392C128.281 40.6154 127.175 39.492 127.175 38.1098V35.6454C127.175 34.2611 128.285 33.1366 129.661 33.1159ZM111.402 35.6454C111.402 34.2493 112.534 33.1155 113.927 33.1155H116.387C117.78 33.1155 118.911 34.2493 118.911 35.6454V38.1098C118.911 39.5059 117.78 40.6397 116.387 40.6397H113.927C112.534 40.6397 111.402 39.5059 111.402 38.1098V35.6454ZM85.8793 28.0931C85.8793 26.697 87.0108 25.5632 88.4041 25.5632H90.8635C92.2568 25.5632 93.3884 26.697 93.3884 28.0931V30.5575C93.3884 31.9536 92.2568 33.0874 90.8635 33.0874H88.4041C87.0108 33.0874 85.8793 31.9536 85.8793 30.5575V28.0931Z" fill="#111629"/>
<path d="M146.934 63.2788V21.2628C146.934 19.6103 148.274 18.2708 149.926 18.2708H203.942C205.595 18.2708 206.934 19.6103 206.934 21.2628V21.2788C206.934 22.9312 208.274 24.2708 209.926 24.2708H209.942C211.595 24.2708 212.934 25.6103 212.934 27.2628V45.2789C212.934 46.9313 211.595 48.2709 209.942 48.2709H209.926C208.274 48.2709 206.934 49.6104 206.934 51.2629V51.2789C206.934 52.9313 208.274 54.2709 209.926 54.2709H209.942C211.595 54.2709 212.934 55.6104 212.934 57.2629V63.2788C212.934 64.9312 211.595 66.2708 209.942 66.2708H197.926C196.274 66.2708 194.934 64.9312 194.934 63.2788V57.2629C194.934 55.6104 193.595 54.2709 191.942 54.2709H167.926C166.274 54.2709 164.934 55.6104 164.934 57.2629V63.2788C164.934 64.9312 163.595 66.2708 161.942 66.2708H149.926C148.274 66.2708 146.934 64.9312 146.934 63.2788ZM167.926 42.2708H191.942C193.595 42.2708 194.934 40.9313 194.934 39.2788V33.2628C194.934 31.6104 193.595 30.2708 191.942 30.2708H167.926C166.274 30.2708 164.934 31.6104 164.934 33.2628V39.2788C164.934 40.9313 166.274 42.2708 167.926 42.2708ZM221.814 63.2788V57.2629C221.814 55.6104 223.154 54.2709 224.806 54.2709H266.822C268.475 54.2709 269.814 52.9313 269.814 51.2789V51.2629C269.814 49.6104 268.475 48.2709 266.822 48.2709H230.806C229.154 48.2709 227.814 46.9313 227.814 45.2789V45.2628C227.814 43.6104 226.475 42.2708 224.822 42.2708H224.806C223.154 42.2708 221.814 40.9313 221.814 39.2788V27.2628C221.814 25.6103 223.154 24.2708 224.806 24.2708H224.822C226.475 24.2708 227.814 22.9312 227.814 21.2788V21.2628C227.814 19.6103 229.154 18.2708 230.806 18.2708H284.822C286.475 18.2708 287.814 19.6103 287.814 21.2628V27.2788C287.814 28.9312 286.475 30.2708 284.822 30.2708H242.806C241.154 30.2708 239.814 31.6104 239.814 33.2628V33.2788C239.814 34.9313 241.154 36.2708 242.806 36.2708H278.822C280.475 36.2708 281.814 37.6104 281.814 39.2628V39.2788C281.814 40.9313 283.154 42.2708 284.806 42.2708H284.822C286.475 42.2708 287.814 43.6104 287.814 45.2628V57.2787C287.814 58.9312 286.475 60.2707 284.822 60.2707H284.806C283.154 60.2707 281.814 61.6103 281.814 63.2627V63.2788C281.814 64.9312 280.475 66.2708 278.822 66.2708H224.806C223.154 66.2708 221.814 64.9312 221.814 63.2788ZM302.694 63.2788V63.2627C302.694 61.6103 301.355 60.2707 299.702 60.2707H299.686C298.034 60.2707 296.694 58.9312 296.694 57.2787V21.2628C296.694 19.6103 298.034 18.2708 299.686 18.2708H311.702C313.355 18.2708 314.694 19.6103 314.694 21.2628V51.2789C314.694 52.9313 316.034 54.2709 317.686 54.2709H341.703C343.355 54.2709 344.695 52.9313 344.695 51.2789V21.2628C344.695 19.6103 346.034 18.2708 347.687 18.2708H359.703C361.355 18.2708 362.695 19.6103 362.695 21.2628V57.2787C362.695 58.9312 361.355 60.2707 359.703 60.2707H359.687C358.034 60.2707 356.695 61.6103 356.695 63.2627V63.2788C356.695 64.9312 355.355 66.2708 353.703 66.2708H305.686C304.034 66.2708 302.694 64.9312 302.694 63.2788ZM371.575 63.2788V21.2628C371.575 19.6103 372.914 18.2708 374.567 18.2708H428.583C430.235 18.2708 431.575 19.6103 431.575 21.2628V21.2788C431.575 22.9312 432.914 24.2708 434.567 24.2708H434.583C436.235 24.2708 437.575 25.6103 437.575 27.2628V45.2789C437.575 46.9313 436.235 48.2709 434.583 48.2709H434.567C432.914 48.2709 431.575 49.6104 431.575 51.2629V51.2789C431.575 52.9313 430.235 54.2709 428.583 54.2709H392.567C390.914 54.2709 389.575 55.6104 389.575 57.2629V63.2788C389.575 64.9312 388.235 66.2708 386.583 66.2708H374.567C372.914 66.2708 371.575 64.9312 371.575 63.2788ZM392.567 42.2708H416.583C418.235 42.2708 419.575 40.9313 419.575 39.2788V33.2628C419.575 31.6104 418.235 30.2708 416.583 30.2708H392.567C390.914 30.2708 389.575 31.6104 389.575 33.2628V39.2788C389.575 40.9313 390.914 42.2708 392.567 42.2708Z" fill="#111629"/>
</svg>
