<svg width="441" height="85" viewBox="0 0 441 85" fill="none" xmlns="http://www.w3.org/2000/svg">
<path d="M91.0671 69.8223H81.1158C79.7216 69.8223 78.5913 70.9548 78.5913 72.3518V79.0117C78.5913 80.4088 79.7216 81.5413 81.1158 81.5413H91.0671C92.4613 81.5413 93.5916 80.4088 93.5916 79.0117V72.3518C93.5916 70.9548 92.4613 69.8223 91.0671 69.8223Z" fill="white"/>
<path d="M129.956 33.1159C130.655 33.1054 131.229 32.5857 131.229 31.8846V28.4959C131.229 26.6923 130.098 25.5632 128.704 25.5632H103.82C102.381 25.5632 101.212 24.4008 101.201 22.9597L101.183 20.5495C101.172 19.1599 100.045 18.039 98.6578 18.039H96.2077C94.8133 18.039 93.6828 16.9063 93.6828 15.5091V5.52057C93.6828 4.12851 92.5566 3 91.1673 3H88.6985C87.3041 3 86.1737 4.13265 86.1737 5.52986V7.98491C86.1737 9.38211 85.0433 10.5148 83.6489 10.5148H73.6896C72.2951 10.5148 71.1647 9.38207 71.1647 7.98482V5.52995C71.1647 4.1327 70.0343 3 68.6398 3H66.1804C64.7859 3 63.6555 4.1327 63.6555 5.52995V10.824C63.6555 12.2213 62.525 13.354 61.1306 13.354H22.0885C20.694 13.354 19.5636 14.4867 19.5636 15.8839V23.0332C19.5636 24.4305 18.4332 25.5632 17.0387 25.5632H13.6161C12.2217 25.5632 11.0912 26.6959 11.0912 28.0931V30.5575C11.0912 31.9547 9.96081 33.0874 8.56635 33.0874H6.10693C4.71247 33.0874 3.58203 34.2201 3.58203 35.6174V40.0025C3.58203 41.3998 4.71247 42.5325 6.10693 42.5325H8.56635C9.96081 42.5325 11.0912 43.6652 11.0912 45.0624V79.0103C11.0912 80.4075 12.2216 81.5402 13.6161 81.5402H23.566C24.9687 81.5402 26.0909 80.4065 26.0909 79.0103L26.1096 65.5923C26.1096 64.1212 27.3065 62.9312 28.7747 62.9312H30.9443C32.411 62.9312 33.6001 64.1226 33.6001 65.5923V73.3882C33.6001 74.7854 34.7306 75.9181 36.125 75.9181H46.0748C47.4693 75.9181 48.5997 74.7854 48.5997 73.3882V65.6017C48.5997 64.1352 49.7972 62.9377 51.2607 62.9405L53.2847 62.9444C54.6772 62.9471 55.8046 64.079 55.8046 65.4743V78.8808C55.8046 80.2778 56.9349 81.4103 58.3291 81.4103H68.2805C69.6746 81.4103 70.8048 80.2779 70.8048 78.8809V64.5191C70.8048 63.4381 69.9302 62.5617 68.8513 62.5617H66.1997C64.8058 62.5617 63.6756 61.4299 63.6748 60.0333L63.6555 28.1119C63.6555 26.7157 64.787 25.5819 66.1804 25.5819H68.6398C70.0343 25.5819 71.1647 26.7146 71.1647 28.1119V53.1299C71.1647 54.5272 72.2952 55.6599 73.6897 55.6599H76.0658C77.4603 55.6599 78.5908 56.7927 78.5908 58.1899V60.6514C78.5908 62.0483 79.7206 63.1808 81.1147 63.1814L128.704 63.2009C130.097 63.2009 131.229 62.0671 131.229 60.671V41.8766C131.229 41.1752 130.649 40.6513 129.95 40.6392C128.576 40.6154 127.469 39.492 127.469 38.1098V35.6454C127.469 34.2611 128.579 33.1366 129.956 33.1159ZM111.697 35.6454C111.697 34.2493 112.828 33.1155 114.222 33.1155H116.681C118.074 33.1155 119.206 34.2493 119.206 35.6454V38.1098C119.206 39.5059 118.074 40.6397 116.681 40.6397H114.222C112.828 40.6397 111.697 39.5059 111.697 38.1098V35.6454ZM86.1737 28.0931C86.1737 26.697 87.3052 25.5632 88.6985 25.5632H91.1579C92.5513 25.5632 93.6828 26.697 93.6828 28.0931V30.5575C93.6828 31.9536 92.5513 33.0874 91.1579 33.0874H88.6985C87.3052 33.0874 86.1737 31.9536 86.1737 30.5575V28.0931Z" fill="white"/>
<path d="M147.229 63.2788V21.2628C147.229 19.6103 148.568 18.2708 150.221 18.2708H204.237C205.889 18.2708 207.229 19.6103 207.229 21.2628V21.2788C207.229 22.9312 208.568 24.2708 210.221 24.2708H210.237C211.889 24.2708 213.229 25.6103 213.229 27.2628V45.2789C213.229 46.9313 211.889 48.2709 210.237 48.2709H210.221C208.568 48.2709 207.229 49.6104 207.229 51.2629V51.2789C207.229 52.9313 208.568 54.2709 210.221 54.2709H210.237C211.889 54.2709 213.229 55.6104 213.229 57.2629V63.2788C213.229 64.9312 211.889 66.2708 210.237 66.2708H198.221C196.568 66.2708 195.229 64.9312 195.229 63.2788V57.2629C195.229 55.6104 193.889 54.2709 192.237 54.2709H168.221C166.568 54.2709 165.229 55.6104 165.229 57.2629V63.2788C165.229 64.9312 163.889 66.2708 162.237 66.2708H150.221C148.568 66.2708 147.229 64.9312 147.229 63.2788ZM168.221 42.2708H192.237C193.889 42.2708 195.229 40.9313 195.229 39.2788V33.2628C195.229 31.6104 193.889 30.2708 192.237 30.2708H168.221C166.568 30.2708 165.229 31.6104 165.229 33.2628V39.2788C165.229 40.9313 166.568 42.2708 168.221 42.2708ZM222.109 63.2788V57.2629C222.109 55.6104 223.448 54.2709 225.101 54.2709H267.117C268.769 54.2709 270.109 52.9313 270.109 51.2789V51.2629C270.109 49.6104 268.769 48.2709 267.117 48.2709H231.101C229.448 48.2709 228.109 46.9313 228.109 45.2789V45.2628C228.109 43.6104 226.769 42.2708 225.117 42.2708H225.101C223.448 42.2708 222.109 40.9313 222.109 39.2788V27.2628C222.109 25.6103 223.448 24.2708 225.101 24.2708H225.117C226.769 24.2708 228.109 22.9312 228.109 21.2788V21.2628C228.109 19.6103 229.448 18.2708 231.101 18.2708H285.117C286.769 18.2708 288.109 19.6103 288.109 21.2628V27.2788C288.109 28.9312 286.769 30.2708 285.117 30.2708H243.101C241.448 30.2708 240.109 31.6104 240.109 33.2628V33.2788C240.109 34.9313 241.448 36.2708 243.101 36.2708H279.117C280.769 36.2708 282.109 37.6104 282.109 39.2628V39.2788C282.109 40.9313 283.448 42.2708 285.101 42.2708H285.117C286.769 42.2708 288.109 43.6104 288.109 45.2628V57.2787C288.109 58.9312 286.769 60.2707 285.117 60.2707H285.101C283.448 60.2707 282.109 61.6103 282.109 63.2627V63.2788C282.109 64.9312 280.769 66.2708 279.117 66.2708H225.101C223.448 66.2708 222.109 64.9312 222.109 63.2788ZM302.989 63.2788V63.2627C302.989 61.6103 301.649 60.2707 299.997 60.2707H299.981C298.328 60.2707 296.989 58.9312 296.989 57.2787V21.2628C296.989 19.6103 298.328 18.2708 299.981 18.2708H311.997C313.649 18.2708 314.989 19.6103 314.989 21.2628V51.2789C314.989 52.9313 316.328 54.2709 317.981 54.2709H341.997C343.649 54.2709 344.989 52.9313 344.989 51.2789V21.2628C344.989 19.6103 346.329 18.2708 347.981 18.2708H359.997C361.65 18.2708 362.989 19.6103 362.989 21.2628V57.2787C362.989 58.9312 361.65 60.2707 359.997 60.2707H359.981C358.329 60.2707 356.989 61.6103 356.989 63.2627V63.2788C356.989 64.9312 355.65 66.2708 353.997 66.2708H305.981C304.328 66.2708 302.989 64.9312 302.989 63.2788ZM371.869 63.2788V21.2628C371.869 19.6103 373.209 18.2708 374.861 18.2708H428.877C430.53 18.2708 431.869 19.6103 431.869 21.2628V21.2788C431.869 22.9312 433.209 24.2708 434.861 24.2708H434.877C436.53 24.2708 437.869 25.6103 437.869 27.2628V45.2789C437.869 46.9313 436.53 48.2709 434.877 48.2709H434.861C433.209 48.2709 431.869 49.6104 431.869 51.2629V51.2789C431.869 52.9313 430.53 54.2709 428.877 54.2709H392.861C391.209 54.2709 389.869 55.6104 389.869 57.2629V63.2788C389.869 64.9312 388.53 66.2708 386.877 66.2708H374.861C373.209 66.2708 371.869 64.9312 371.869 63.2788ZM392.861 42.2708H416.877C418.53 42.2708 419.869 40.9313 419.869 39.2788V33.2628C419.869 31.6104 418.53 30.2708 416.877 30.2708H392.861C391.209 30.2708 389.869 31.6104 389.869 33.2628V39.2788C389.869 40.9313 391.209 42.2708 392.861 42.2708Z" fill="white"/>
</svg>
