<svg width="96" height="96" viewBox="0 0 96 96" fill="none" xmlns="http://www.w3.org/2000/svg">
<rect width="96" height="96" rx="48" fill="#22BF83"/>
<path d="M87.1597 42.9639C87.1597 39.5947 84.6108 36.9551 81.3574 36.9551H71.3305C70.7461 35.3086 69.4365 34.0019 67.793 33.416V31.1367C67.793 27.9404 65.1914 25.3418 61.9951 25.3418H60.7221C58.4677 25.3418 56.5092 26.6338 55.5483 28.5176C54.5888 26.6338 52.6303 25.3418 50.3759 25.3418H49.1074C48.7822 25.3418 48.4665 25.3813 48.1553 25.4332V24.7705C48.1553 22.6904 47.313 20.6572 45.8423 19.1894C44.3525 17.6982 42.3691 16.875 40.2597 16.875H37.1044C34.9936 16.875 33.0088 17.6982 31.5249 19.1865C30.0527 20.6543 29.209 22.6904 29.209 24.7705V27.325C28.4516 27.7019 27.7375 28.1723 27.1245 28.7871C26.5635 29.3467 26.1262 30.0061 25.76 30.7019C25.656 30.6964 25.5586 30.6709 25.4531 30.6709H23.0464C19.8472 30.6709 17.2441 33.2725 17.2441 36.4717V37.1338C15.2769 37.6348 13.7095 39.1436 13.1235 41.0771C10.7402 41.7978 9 44.0156 9 46.6318V48.8877C9 51.4131 10.6201 53.5634 12.8745 54.3603V68.9678C12.8745 72.167 15.4775 74.7715 18.6767 74.7715H23.8081C26.143 74.7715 28.1601 73.3857 29.08 71.3965C29.789 71.7041 30.5713 71.8769 31.3931 71.8769H37.6304C38.0625 71.8769 38.4844 71.8301 38.8901 71.7392C39.8862 73.5088 41.7817 74.7041 43.9511 74.7041H50.1899C51.4028 74.7041 52.5278 74.3274 53.4602 73.6886C54.4087 74.3644 55.5608 74.7715 56.811 74.7715H61.9438C65.143 74.7715 67.7461 72.1699 67.7461 68.9707V65.54C67.7461 65.4666 67.727 65.3983 67.7241 65.3255L81.356 65.3321C84.5566 65.3321 87.1597 62.7276 87.1597 59.5283V49.8545C87.1597 48.9492 86.9165 48.0586 86.4712 47.2823C86.9165 46.5059 87.1597 45.6153 87.1597 44.71V42.9639Z" fill="#111629"/>
<path d="M42.6548 22.3697C42.0177 21.7328 41.1541 21.375 40.2535 21.375H37.0992C36.1986 21.375 35.3346 21.7327 34.6979 22.3697C34.0609 23.0065 33.7031 23.8702 33.7031 24.7709V27.9253C33.7031 28.1027 33.7279 28.2767 33.7552 28.4498H37.9682C38.9444 28.4498 39.8806 28.8376 40.5708 29.5279C41.0068 29.9642 41.306 30.5043 41.4792 31.0851C41.9152 30.9161 42.3178 30.6635 42.6548 30.3265C43.2915 29.6897 43.6493 28.8259 43.6493 27.9253V24.7708C43.6493 23.8702 43.2915 23.0065 42.6548 22.3697Z" fill="#CCD4DF"/>
<path d="M61.9468 64.2363H56.8139C56.0947 64.2363 55.5117 64.8193 55.5117 65.5385V68.9668C55.5117 69.686 56.0947 70.269 56.8139 70.269H61.9468C62.666 70.269 63.249 69.686 63.249 68.9668V65.5385C63.249 64.8193 62.666 64.2363 61.9468 64.2363Z" fill="white"/>
<path d="M82.0575 45.3452C82.3952 45.3543 82.6587 45.0488 82.6587 44.711V42.9665C82.6587 42.0381 82.0757 41.4568 81.3564 41.4568H68.5211C67.7793 41.4568 67.1763 40.8585 67.1705 40.1167L67.1608 38.8758C67.1552 38.1605 66.5737 37.5836 65.8584 37.5836H64.5946C63.8753 37.5836 63.2923 37.0005 63.2923 36.2812V31.1393C63.2923 30.4227 62.7113 29.8418 61.9948 29.8418H60.7215C60.0021 29.8418 59.4189 30.425 59.4189 31.1444V32.4079C59.4189 33.1272 58.8358 33.7102 58.1165 33.7102H52.9797C52.2604 33.7102 51.6773 33.1272 51.6773 32.4079V31.1442C51.6773 30.4249 51.0943 29.8418 50.375 29.8418H49.1063C48.3871 29.8418 47.804 30.4249 47.804 31.1442V33.8694C47.804 34.5887 47.2209 35.1718 46.5016 35.1718H43.1955C42.4471 35.1718 41.8403 35.7786 41.8403 36.5272C41.8403 37.0518 42.1441 37.5279 42.6206 37.7471C43.2603 38.0412 43.7084 38.6846 43.7084 39.431V39.6024C43.7084 40.6266 42.8782 41.4567 41.8541 41.4567H39.5834H34.3333H30.1891L26.7934 41.4568C25.7692 41.4568 24.939 40.6266 24.939 39.6024V39.431C24.939 38.6845 25.3874 38.0411 26.0271 37.747C26.5036 37.5279 26.8074 37.0518 26.8074 36.5272C26.8074 35.7786 26.2006 35.1717 25.4519 35.1717H23.0458C22.3265 35.1717 21.7434 35.7549 21.7434 36.4741V40.1544C21.7434 40.8737 21.1603 41.4568 20.441 41.4568H18.6757C17.9564 41.4568 17.3734 42.0399 17.3734 42.7592V44.0277C17.3734 44.747 16.7903 45.3301 16.071 45.3301H14.8024C14.0831 45.3301 13.5 45.9132 13.5 46.6324V48.8898C13.5 49.6091 14.0831 50.1922 14.8024 50.1922H16.071C16.7903 50.1922 17.3734 50.7753 17.3734 51.4946V68.9702C17.3734 69.6895 17.9564 70.2726 18.6757 70.2726H23.808C24.5265 70.2726 25.1093 69.6906 25.1103 68.972L25.12 62.0658C25.1211 61.3073 25.7362 60.693 26.4947 60.693H28.7194C29.4761 60.693 30.0895 61.3064 30.0895 62.0631V66.0761C30.0895 66.7954 30.6726 67.3785 31.3918 67.3785H37.6299C38.3492 67.3785 38.9323 66.7954 38.9323 66.0761V62.0678C38.9323 61.3129 39.5499 60.6964 40.3048 60.6979L41.3487 60.6998C42.067 60.7012 42.6486 61.2839 42.6486 62.0022V68.9035C42.6486 69.6227 43.2316 70.2057 43.9508 70.2057H50.1896C50.9087 70.2057 51.4917 69.6227 51.4917 68.9036V61.5105C51.4917 60.954 51.0405 60.5028 50.484 60.5028H49.1163C48.3974 60.5028 47.8144 59.9202 47.8139 59.2012L47.804 42.7696C47.8035 42.05 48.3867 41.4664 49.1063 41.4664H50.375C51.0942 41.4664 51.6773 42.0495 51.6773 42.7688V55.6475C51.6773 56.3668 52.2604 56.9499 52.9797 56.9499H54.2051C54.9245 56.9499 55.5077 57.5331 55.5077 58.2526V59.5194C55.5077 60.2385 56.0905 60.8215 56.8096 60.8218L81.3557 60.8319C82.0752 60.8322 82.6586 60.249 82.6586 59.5295V49.8546C82.6586 49.5152 82.3939 49.209 82.0546 49.2174C81.3204 49.2354 80.7195 48.6456 80.7195 47.9156V46.6469C80.7195 45.9158 81.3224 45.3254 82.0575 45.3452ZM63.2923 44.0277C63.2923 44.7465 62.7087 45.3301 61.9899 45.3301H60.7216C60.0028 45.3301 59.4189 44.7465 59.4189 44.0277V42.7592C59.4189 42.0405 60.0028 41.4568 60.7216 41.4568H61.9899C62.7087 41.4568 63.2923 42.0405 63.2923 42.7592V44.0277ZM76.4572 47.9155C76.4572 48.6342 75.8736 49.2179 75.1551 49.2179H73.8865C73.1677 49.2179 72.5839 48.6342 72.5839 47.9155V46.6469C72.5839 45.9282 73.1677 45.3445 73.8865 45.3445H75.1551C75.8736 45.3445 76.4572 45.9282 76.4572 46.6469V47.9155Z" fill="white"/>
<path d="M35.8585 30.9727H32.7042C31.8036 30.9727 30.9399 31.3304 30.3031 31.9672C29.6663 32.604 29.3086 33.4677 29.3086 34.3682V37.2713C29.3086 38.1868 30.0508 38.929 30.9663 38.929H37.5964C38.5119 38.929 39.254 38.1868 39.254 37.2713V34.3683C39.254 33.4677 38.8963 32.604 38.2595 31.9672C37.6227 31.3304 36.759 30.9727 35.8585 30.9727Z" fill="#97A1C0"/>
</svg>
