<svg width="64" height="64" viewBox="0 0 64 64" fill="none" xmlns="http://www.w3.org/2000/svg">
<rect width="64" height="64" rx="32" fill="#22BF83"/>
<path d="M58.1064 28.6426C58.1064 26.3965 56.4072 24.6367 54.2383 24.6367H47.5537C47.1641 23.5391 46.291 22.668 45.1953 22.2773V20.7578C45.1953 18.6269 43.4609 16.8945 41.3301 16.8945H40.4814C38.9785 16.8945 37.6728 17.7558 37.0322 19.0117C36.3926 17.7558 35.0869 16.8945 33.584 16.8945H32.7383C32.5215 16.8945 32.311 16.9209 32.1035 16.9554V16.5137C32.1035 15.1269 31.542 13.7715 30.5615 12.793C29.5683 11.7988 28.2461 11.25 26.8398 11.25H24.7363C23.3291 11.25 22.0058 11.7988 21.0166 12.791C20.0351 13.7695 19.4726 15.127 19.4726 16.5137V18.2167C18.9678 18.4679 18.4917 18.7815 18.083 19.1914C17.709 19.5645 17.4175 20.004 17.1733 20.4679C17.104 20.4642 17.0391 20.4473 16.9688 20.4473H15.3643C13.2314 20.4473 11.4961 22.1817 11.4961 24.3145V24.7559C10.1846 25.0898 9.13966 26.0957 8.74902 27.3848C7.16016 27.8652 6 29.3437 6 31.0879V32.5918C6 34.2754 7.08008 35.709 8.583 36.2402V45.9785C8.583 48.1113 10.3184 49.8476 12.4512 49.8476H15.8721C17.4287 49.8476 18.7734 48.9238 19.3867 47.5976C19.8594 47.8027 20.3808 47.918 20.9287 47.918H25.0869C25.375 47.918 25.6562 47.8867 25.9267 47.8262C26.5908 49.0058 27.8545 49.8027 29.3008 49.8027H33.4599C34.2685 49.8027 35.0185 49.5516 35.6401 49.1257C36.2724 49.5763 37.0405 49.8476 37.874 49.8476H41.2959C43.4287 49.8476 45.164 48.1133 45.164 45.9805V43.6934C45.164 43.6444 45.1513 43.5989 45.1494 43.5503L54.2373 43.5547C56.3711 43.5547 58.1064 41.8184 58.1064 39.6856V33.2363C58.1064 32.6328 57.9443 32.0391 57.6475 31.5215C57.9443 31.0039 58.1064 30.4102 58.1064 29.8067V28.6426Z" fill="#111629"/>
<path d="M28.4365 14.9131C28.0118 14.4886 27.4361 14.25 26.8356 14.25H24.7328C24.1324 14.25 23.5564 14.4885 23.1319 14.9131C22.7072 15.3376 22.4688 15.9135 22.4688 16.5139V18.6169C22.4688 18.7352 22.4853 18.8511 22.5035 18.9665H25.3121C25.9629 18.9665 26.5871 19.225 27.0472 19.6852C27.3379 19.9761 27.5373 20.3362 27.6528 20.7234C27.9435 20.6107 28.2119 20.4423 28.4365 20.2176C28.861 19.7931 29.0995 19.2172 29.0995 18.6168V16.5139C29.0995 15.9135 28.861 15.3377 28.4365 14.9131Z" fill="#CCD4DF"/>
<path d="M41.2979 42.8242H37.8759C37.3965 42.8242 37.0078 43.2129 37.0078 43.6923V45.9779C37.0078 46.4573 37.3965 46.846 37.8759 46.846H41.2979C41.7773 46.846 42.166 46.4573 42.166 45.9779V43.6923C42.166 43.2129 41.7773 42.8242 41.2979 42.8242Z" fill="white"/>
<path d="M54.705 30.2302C54.9301 30.2362 55.1058 30.0325 55.1058 29.8073V28.6443C55.1058 28.0254 54.7171 27.6379 54.2376 27.6379H45.6808C45.1862 27.6379 44.7842 27.239 44.7803 26.7445L44.7738 25.9172C44.7701 25.4403 44.3825 25.0557 43.9056 25.0557H43.0631C42.5836 25.0557 42.1948 24.667 42.1948 24.1875V20.7595C42.1948 20.2818 41.8076 19.8945 41.3298 19.8945H40.481C40.0014 19.8945 39.6126 20.2833 39.6126 20.763V21.6053C39.6126 22.0848 39.2239 22.4735 38.7444 22.4735H35.3198C34.8403 22.4735 34.4516 22.0848 34.4516 21.6053V20.7628C34.4516 20.2833 34.0628 19.8945 33.5833 19.8945H32.7376C32.258 19.8945 31.8693 20.2833 31.8693 20.7628V22.5796C31.8693 23.0591 31.4806 23.4479 31.0011 23.4479H28.797C28.2981 23.4479 27.8935 23.8524 27.8935 24.3515C27.8935 24.7012 28.0961 25.0186 28.4137 25.1647C28.8402 25.3608 29.1389 25.7897 29.1389 26.2873V26.4016C29.1389 27.0844 28.5855 27.6378 27.9027 27.6378H26.3889H22.8889H20.126L17.8623 27.6379C17.1795 27.6379 16.626 27.0844 16.626 26.4016V26.2873C16.626 25.7897 16.9249 25.3608 17.3514 25.1647C17.6691 25.0186 17.8716 24.7012 17.8716 24.3515C17.8716 23.8524 17.4671 23.4478 16.9679 23.4478H15.3639C14.8843 23.4478 14.4956 23.8366 14.4956 24.3161V26.7696C14.4956 27.2491 14.1069 27.6379 13.6273 27.6379H12.4505C11.971 27.6379 11.5822 28.0266 11.5822 28.5061V29.3518C11.5822 29.8313 11.1935 30.2201 10.714 30.2201H9.86824C9.38872 30.2201 9 30.6088 9 31.0883V32.5932C9 33.0727 9.38872 33.4615 9.86824 33.4615H10.714C11.1935 33.4615 11.5822 33.8502 11.5822 34.3297V45.9801C11.5822 46.4596 11.971 46.8484 12.4505 46.8484H15.872C16.351 46.8484 16.7395 46.4604 16.7402 45.9813L16.7467 41.3772C16.7474 40.8715 17.1575 40.462 17.6631 40.462H19.1463C19.6507 40.462 20.0597 40.8709 20.0597 41.3754V44.0507C20.0597 44.5303 20.4484 44.919 20.9279 44.919H25.0866C25.5661 44.919 25.9549 44.5303 25.9549 44.0507V41.3785C25.9549 40.8753 26.3666 40.4643 26.8699 40.4653L27.5658 40.4666C28.0447 40.4675 28.4324 40.8559 28.4324 41.3348V45.9357C28.4324 46.4151 28.8211 46.8038 29.3005 46.8038H33.4597C33.9391 46.8038 34.3278 46.4151 34.3278 45.9357V41.007C34.3278 40.636 34.027 40.3352 33.656 40.3352H32.7442C32.2649 40.3352 31.8762 39.9468 31.876 39.4675L31.8693 28.5131C31.869 28.0333 32.2578 27.6443 32.7375 27.6443H33.5833C34.0628 27.6443 34.4515 28.033 34.4515 28.5125V37.0983C34.4515 37.5779 34.8403 37.9666 35.3198 37.9666H36.1367C36.6164 37.9666 37.0052 38.3554 37.0052 38.8351V39.6796C37.0052 40.159 37.3937 40.5477 37.873 40.5479L54.2372 40.5546C54.7168 40.5548 55.1058 40.166 55.1058 39.6863V33.2364C55.1058 33.0101 54.9293 32.806 54.7031 32.8116C54.2136 32.8236 53.813 32.4304 53.813 31.9437V31.0979C53.813 30.6105 54.2149 30.217 54.705 30.2302ZM42.1949 29.3518C42.1949 29.831 41.8058 30.2201 41.3266 30.2201H40.481C40.0019 30.2201 39.6126 29.831 39.6126 29.3518V28.5061C39.6126 28.027 40.0019 27.6379 40.481 27.6379H41.3266C41.8058 27.6379 42.1949 28.027 42.1949 28.5061V29.3518ZM50.9715 31.9437C50.9715 32.4228 50.5824 32.8119 50.1034 32.8119H49.2577C48.7785 32.8119 48.3892 32.4228 48.3892 31.9437V31.0979C48.3892 30.6188 48.7785 30.2297 49.2577 30.2297H50.1034C50.5824 30.2297 50.9715 30.6188 50.9715 31.0979V31.9437Z" fill="white"/>
<path d="M23.9056 20.6484H21.8028C21.2024 20.6484 20.6266 20.8869 20.2021 21.3115C19.7776 21.736 19.5391 22.3118 19.5391 22.9122V24.8476C19.5391 25.4579 20.0338 25.9527 20.6442 25.9527H25.0642C25.6746 25.9527 26.1694 25.4579 26.1694 24.8475V22.9122C26.1694 22.3118 25.9309 21.736 25.5063 21.3115C25.0818 20.8869 24.506 20.6484 23.9056 20.6484Z" fill="#97A1C0"/>
</svg>
