<svg width="24" height="24" viewBox="0 0 24 24" fill="none" xmlns="http://www.w3.org/2000/svg">
<rect width="24" height="24" rx="12" fill="#22BF83"/>
<path d="M21.7899 10.741C21.7899 9.89868 21.1527 9.23877 20.3394 9.23877H17.8326C17.6865 8.82715 17.3591 8.50048 16.9482 8.354V7.78418C16.9482 6.9851 16.2978 6.33544 15.4988 6.33544H15.1805C14.6169 6.33544 14.1273 6.65844 13.8871 7.12939C13.6472 6.65844 13.1576 6.33544 12.594 6.33544H12.2768C12.1955 6.33544 12.1166 6.34533 12.0388 6.35829V6.19262C12.0388 5.6726 11.8282 5.16431 11.4606 4.79736C11.0881 4.42456 10.5923 4.21875 10.0649 4.21875H9.27611C8.7484 4.21875 8.25219 4.42456 7.88122 4.79663C7.51318 5.16358 7.30224 5.67261 7.30224 6.19263V6.83126C7.11291 6.92546 6.93438 7.04306 6.78113 7.19678C6.64087 7.33667 6.53155 7.50152 6.44 7.67546C6.414 7.67409 6.38965 7.66773 6.36328 7.66773H5.7616C4.96179 7.66773 4.31104 8.31812 4.31104 9.11792V9.28345C3.81922 9.40869 3.42737 9.78589 3.28088 10.2693C2.68506 10.4495 2.25 11.0039 2.25 11.658V12.2219C2.25 12.8533 2.65503 13.3909 3.21862 13.5901V17.2419C3.21862 18.0417 3.86938 18.6929 4.66918 18.6929H5.95202C6.53576 18.6929 7.04003 18.3464 7.27001 17.8491C7.44726 17.926 7.64282 17.9692 7.84826 17.9692H9.40759C9.51562 17.9692 9.62109 17.9575 9.72253 17.9348C9.97155 18.3772 10.4454 18.676 10.9878 18.676H12.5475C12.8507 18.676 13.132 18.5819 13.365 18.4221C13.6022 18.5911 13.8902 18.6929 14.2028 18.6929H15.486C16.2858 18.6929 16.9365 18.0425 16.9365 17.2427V16.385C16.9365 16.3666 16.9318 16.3496 16.931 16.3314L20.339 16.333C21.1392 16.333 21.7899 15.6819 21.7899 14.8821V12.4636C21.7899 12.2373 21.7291 12.0147 21.6178 11.8206C21.7291 11.6265 21.7899 11.4038 21.7899 11.1775V10.741Z" fill="#111629"/>
<path d="M10.6637 5.59241C10.5044 5.43321 10.2885 5.34375 10.0634 5.34375H9.2748C9.04965 5.34375 8.83366 5.43319 8.67447 5.59241C8.51522 5.75162 8.42578 5.96755 8.42578 6.19271V6.98134C8.42578 7.02568 8.43198 7.06918 8.4388 7.11244H9.49206C9.7361 7.11244 9.97015 7.20939 10.1427 7.38197C10.2517 7.49105 10.3265 7.62607 10.3698 7.77127C10.4788 7.72902 10.5794 7.66586 10.6637 7.58162C10.8229 7.42241 10.9123 7.20646 10.9123 6.98131V6.19271C10.9123 5.96756 10.8229 5.75163 10.6637 5.59241Z" fill="#CCD4DF"/>
<path d="M15.4867 16.0586H14.2035C14.0237 16.0586 13.8779 16.2043 13.8779 16.3841V17.2412C13.8779 17.421 14.0237 17.5668 14.2035 17.5668H15.4867C15.6665 17.5668 15.8122 17.421 15.8122 17.2412V16.3841C15.8122 16.2043 15.6665 16.0586 15.4867 16.0586Z" fill="white"/>
<path d="M20.5144 11.3368C20.5988 11.3391 20.6647 11.2627 20.6647 11.1782V10.7421C20.6647 10.51 20.5189 10.3647 20.3391 10.3647H17.1303C16.9448 10.3647 16.7941 10.2151 16.7926 10.0297L16.7902 9.71943C16.7888 9.5406 16.6434 9.39638 16.4646 9.39638H16.1487C15.9688 9.39638 15.8231 9.25061 15.8231 9.07079V7.78531C15.8231 7.60617 15.6778 7.46094 15.4987 7.46094H15.1804C15.0005 7.46094 14.8547 7.60674 14.8547 7.78659V8.10246C14.8547 8.28228 14.709 8.42805 14.5291 8.42805H13.2449C13.0651 8.42805 12.9193 8.28228 12.9193 8.10246V7.78653C12.9193 7.60671 12.7736 7.46094 12.5937 7.46094H12.2766C12.0968 7.46094 11.951 7.60671 11.951 7.78653V8.46784C11.951 8.64766 11.8052 8.79343 11.6254 8.79343H10.7989C10.6118 8.79343 10.4601 8.94515 10.4601 9.13229C10.4601 9.26343 10.536 9.38247 10.6551 9.43725C10.8151 9.51078 10.9271 9.67163 10.9271 9.85824V9.9011C10.9271 10.1571 10.7196 10.3647 10.4635 10.3647H9.89584H8.58332H7.54726L6.69835 10.3647C6.44231 10.3647 6.23475 10.1571 6.23475 9.90109V9.85823C6.23475 9.67162 6.34685 9.51077 6.50678 9.43725C6.6259 9.38246 6.70185 9.26343 6.70185 9.13228C6.70185 8.94513 6.55015 8.79342 6.36297 8.79342H5.76145C5.58163 8.79342 5.43585 8.9392 5.43585 9.11902V10.0391C5.43585 10.2189 5.29007 10.3647 5.11025 10.3647H4.66893C4.48911 10.3647 4.34334 10.5105 4.34334 10.6903V11.0074C4.34334 11.1872 4.19757 11.333 4.01775 11.333H3.70059C3.52077 11.333 3.375 11.4788 3.375 11.6586V12.2229C3.375 12.4028 3.52077 12.5485 3.70059 12.5485H4.01775C4.19757 12.5485 4.34334 12.6943 4.34334 12.8741V17.243C4.34334 17.4229 4.48911 17.5686 4.66893 17.5686H5.95199C6.13163 17.5686 6.27733 17.4231 6.27758 17.2435L6.28001 15.5169C6.28028 15.3273 6.43406 15.1737 6.62368 15.1737H7.17985C7.36902 15.1737 7.52237 15.3271 7.52237 15.5163V16.5195C7.52237 16.6993 7.66814 16.8451 7.84796 16.8451H9.40748C9.5873 16.8451 9.73307 16.6993 9.73307 16.5195V15.5174C9.73307 15.3287 9.88748 15.1746 10.0762 15.175L10.3372 15.1754C10.5167 15.1758 10.6621 15.3215 10.6621 15.501V17.2264C10.6621 17.4062 10.8079 17.5519 10.9877 17.5519H12.5474C12.7272 17.5519 12.8729 17.4062 12.8729 17.2264V15.3781C12.8729 15.239 12.7601 15.1262 12.621 15.1262H12.2791C12.0993 15.1262 11.9536 14.9805 11.9535 14.8008L11.951 10.6929C11.9509 10.513 12.0967 10.3671 12.2766 10.3671H12.5937C12.7736 10.3671 12.9193 10.5129 12.9193 10.6927V13.9124C12.9193 14.0922 13.0651 14.238 13.2449 14.238H13.5513C13.7311 14.238 13.8769 14.3838 13.8769 14.5636V14.8803C13.8769 15.0601 14.0226 15.2059 14.2024 15.2059L20.3389 15.2085C20.5188 15.2085 20.6647 15.0627 20.6647 14.8829V12.4641C20.6647 12.3793 20.5985 12.3027 20.5137 12.3048C20.3301 12.3093 20.1799 12.1619 20.1799 11.9794V11.6622C20.1799 11.4794 20.3306 11.3318 20.5144 11.3368ZM15.8231 11.0074C15.8231 11.1871 15.6772 11.333 15.4975 11.333H15.1804C15.0007 11.333 14.8547 11.1871 14.8547 11.0074V10.6903C14.8547 10.5106 15.0007 10.3647 15.1804 10.3647H15.4975C15.6772 10.3647 15.8231 10.5106 15.8231 10.6903V11.0074ZM19.1143 11.9794C19.1143 12.159 18.9684 12.305 18.7888 12.305H18.4716C18.2919 12.305 18.146 12.159 18.146 11.9794V11.6622C18.146 11.4825 18.2919 11.3366 18.4716 11.3366H18.7888C18.9684 11.3366 19.1143 11.4825 19.1143 11.6622V11.9794Z" fill="white"/>
<path d="M8.96462 7.74219H8.17604C7.9509 7.74219 7.73498 7.83162 7.57578 7.99082C7.41659 8.15002 7.32715 8.36594 7.32715 8.59108V9.31686C7.32715 9.54573 7.51269 9.73128 7.74157 9.73128H9.39909C9.62797 9.73128 9.81351 9.54573 9.81351 9.31685V8.59109C9.81351 8.36595 9.72407 8.15003 9.56488 7.99083C9.40568 7.83163 9.18976 7.74219 8.96462 7.74219Z" fill="#97A1C0"/>
</svg>
