<svg width="32" height="32" viewBox="0 0 32 32" fill="none" xmlns="http://www.w3.org/2000/svg">
<rect width="32" height="32" rx="16" fill="#22BF83"/>
<path d="M29.0532 14.3213C29.0532 13.1982 28.2036 12.3184 27.1191 12.3184H23.7768C23.582 11.7695 23.1455 11.334 22.5977 11.1387V10.3789C22.5977 9.31347 21.7305 8.44726 20.665 8.44726H20.2407C19.4892 8.44726 18.8364 8.87792 18.5161 9.50585C18.1963 8.87792 17.5434 8.44726 16.792 8.44726H16.3691C16.2607 8.44726 16.1555 8.46044 16.0518 8.47772V8.25683C16.0518 7.56347 15.771 6.88574 15.2808 6.39648C14.7842 5.89941 14.123 5.625 13.4199 5.625H12.3681C11.6645 5.625 11.0029 5.89941 10.5083 6.39551C10.0176 6.88477 9.73632 7.56348 9.73632 8.25684V9.10834C9.48388 9.23395 9.24584 9.39075 9.0415 9.59571C8.85449 9.78223 8.70874 10.002 8.58667 10.234C8.552 10.2321 8.51953 10.2236 8.48438 10.2236H7.68213C6.61572 10.2236 5.74805 11.0908 5.74805 12.1572V12.3779C5.09229 12.5449 4.56983 13.0478 4.37451 13.6924C3.58008 13.9326 3 14.6719 3 15.5439V16.2959C3 17.1377 3.54004 17.8545 4.2915 18.1201V22.9893C4.2915 24.0557 5.15918 24.9238 6.22558 24.9238H7.93603C8.71435 24.9238 9.38671 24.4619 9.69335 23.7988C9.92968 23.9014 10.1904 23.959 10.4644 23.959H12.5435C12.6875 23.959 12.8281 23.9434 12.9634 23.9131C13.2954 24.5029 13.9272 24.9014 14.6504 24.9014H16.73C17.1343 24.9014 17.5093 24.7758 17.8201 24.5629C18.1362 24.7881 18.5203 24.9238 18.937 24.9238H20.6479C21.7143 24.9238 22.582 24.0566 22.582 22.9902V21.8467C22.582 21.8222 22.5757 21.7994 22.5747 21.7752L27.1187 21.7773C28.1855 21.7773 29.0532 20.9092 29.0532 19.8428V16.6182C29.0532 16.3164 28.9722 16.0195 28.8237 15.7607C28.9722 15.502 29.0532 15.2051 29.0532 14.9033V14.3213Z" fill="#111629"/>
<path d="M14.2183 7.45655C14.0059 7.24428 13.718 7.125 13.4178 7.125H12.3664C12.0662 7.125 11.7782 7.24425 11.566 7.45655C11.3536 7.66882 11.2344 7.95673 11.2344 8.25695V9.30845C11.2344 9.36758 11.2426 9.42557 11.2517 9.48326H12.6561C12.9815 9.48326 13.2935 9.61252 13.5236 9.84262C13.6689 9.98807 13.7687 10.1681 13.8264 10.3617C13.9717 10.3054 14.1059 10.2212 14.2183 10.1088C14.4305 9.89655 14.5498 9.60862 14.5498 9.30842V8.25694C14.5498 7.95674 14.4305 7.66884 14.2183 7.45655Z" fill="#CCD4DF"/>
<path d="M20.6489 21.4121H18.938C18.6982 21.4121 18.5039 21.6064 18.5039 21.8462V22.9889C18.5039 23.2287 18.6982 23.423 18.938 23.423H20.6489C20.8887 23.423 21.083 23.2287 21.083 22.9889V21.8462C21.083 21.6064 20.8887 21.4121 20.6489 21.4121Z" fill="white"/>
<path d="M27.3525 15.1151C27.4651 15.1181 27.5529 15.0163 27.5529 14.9037V14.3222C27.5529 14.0127 27.3586 13.8189 27.1188 13.8189H22.8404C22.5931 13.8189 22.3921 13.6195 22.3902 13.3722L22.3869 12.9586C22.3851 12.7202 22.1912 12.5279 21.9528 12.5279H21.5315C21.2918 12.5279 21.0974 12.3335 21.0974 12.0937V10.3798C21.0974 10.1409 20.9038 9.94727 20.6649 9.94727H20.2405C20.0007 9.94727 19.8063 10.1417 19.8063 10.3815V10.8026C19.8063 11.0424 19.6119 11.2367 19.3722 11.2367H17.6599C17.4201 11.2367 17.2258 11.0424 17.2258 10.8026V10.3814C17.2258 10.1416 17.0314 9.94727 16.7917 9.94727H16.3688C16.129 9.94727 15.9347 10.1416 15.9347 10.3814V11.2898C15.9347 11.5296 15.7403 11.7239 15.5005 11.7239H14.3985C14.149 11.7239 13.9468 11.9262 13.9468 12.1757C13.9468 12.3506 14.048 12.5093 14.2069 12.5824C14.4201 12.6804 14.5695 12.8949 14.5695 13.1437V13.2008C14.5695 13.5422 14.2927 13.8189 13.9514 13.8189H13.1945H11.4444H10.063L8.93113 13.8189C8.58975 13.8189 8.313 13.5422 8.313 13.2008V13.1437C8.313 12.8948 8.46247 12.6804 8.67571 12.5823C8.83454 12.5093 8.9358 12.3506 8.9358 12.1757C8.9358 11.9262 8.73354 11.7239 8.48396 11.7239H7.68193C7.44217 11.7239 7.2478 11.9183 7.2478 12.158V13.3848C7.2478 13.6246 7.05343 13.8189 6.81366 13.8189H6.22524C5.98548 13.8189 5.79112 14.0133 5.79112 14.2531V14.6759C5.79112 14.9157 5.59676 15.11 5.357 15.11H4.93412C4.69436 15.11 4.5 15.3044 4.5 15.5441V16.2966C4.5 16.5364 4.69436 16.7307 4.93412 16.7307H5.357C5.59676 16.7307 5.79112 16.9251 5.79112 17.1649V22.9901C5.79112 23.2298 5.98548 23.4242 6.22524 23.4242H7.93599C8.17551 23.4242 8.36977 23.2302 8.37011 22.9907L8.37335 20.6886C8.37371 20.4358 8.57875 20.231 8.83157 20.231H9.57314C9.82536 20.231 10.0298 20.4355 10.0298 20.6877V22.0254C10.0298 22.2651 10.2242 22.4595 10.4639 22.4595H12.5433C12.7831 22.4595 12.9774 22.2651 12.9774 22.0254V20.6893C12.9774 20.4376 13.1833 20.2321 13.4349 20.2326L13.7829 20.2333C14.0223 20.2337 14.2162 20.428 14.2162 20.6674V22.9678C14.2162 23.2076 14.4105 23.4019 14.6503 23.4019H16.7299C16.9696 23.4019 17.1639 23.2076 17.1639 22.9679V20.5035C17.1639 20.318 17.0135 20.1676 16.828 20.1676H16.3721C16.1325 20.1676 15.9381 19.9734 15.938 19.7337L15.9347 14.2565C15.9345 14.0167 16.1289 13.8221 16.3688 13.8221H16.7917C17.0314 13.8221 17.2258 14.0165 17.2258 14.2563V18.5492C17.2258 18.7889 17.4201 18.9833 17.6599 18.9833H18.0684C18.3082 18.9833 18.5026 19.1777 18.5026 19.4175V19.8398C18.5026 20.0795 18.6968 20.2738 18.9365 20.2739L27.1186 20.2773C27.3584 20.2774 27.5529 20.083 27.5529 19.8432V16.6182C27.5529 16.5051 27.4646 16.403 27.3515 16.4058C27.1068 16.4118 26.9065 16.2152 26.9065 15.9719V15.549C26.9065 15.3053 27.1075 15.1085 27.3525 15.1151ZM21.0974 14.6759C21.0974 14.9155 20.9029 15.11 20.6633 15.11H20.2405C20.0009 15.11 19.8063 14.9155 19.8063 14.6759V14.2531C19.8063 14.0135 20.0009 13.8189 20.2405 13.8189H20.6633C20.9029 13.8189 21.0974 14.0135 21.0974 14.2531V14.6759ZM25.4857 15.9718C25.4857 16.2114 25.2912 16.406 25.0517 16.406H24.6288C24.3892 16.406 24.1946 16.2114 24.1946 15.9718V15.549C24.1946 15.3094 24.3892 15.1148 24.6288 15.1148H25.0517C25.2912 15.1148 25.4857 15.3094 25.4857 15.549V15.9718Z" fill="white"/>
<path d="M11.9528 10.3242H10.9014C10.6012 10.3242 10.3133 10.4435 10.101 10.6557C9.88878 10.868 9.76953 11.1559 9.76953 11.4561V12.4238C9.76953 12.7289 10.0169 12.9763 10.3221 12.9763H12.5321C12.8373 12.9763 13.0847 12.7289 13.0847 12.4238V11.4561C13.0847 11.1559 12.9654 10.868 12.7532 10.6557C12.5409 10.4435 12.253 10.3242 11.9528 10.3242Z" fill="#97A1C0"/>
</svg>
