<svg width="16" height="16" viewBox="0 0 16 16" fill="none" xmlns="http://www.w3.org/2000/svg">
<rect width="16" height="16" rx="8" fill="#22BF83"/>
<path d="M14.5266 7.16065C14.5266 6.59912 14.1018 6.15918 13.5596 6.15918H11.8884C11.791 5.88476 11.5728 5.66699 11.2988 5.56933V5.18945C11.2988 4.65674 10.8652 4.22363 10.3325 4.22363H10.1204C9.74462 4.22363 9.4182 4.43896 9.25805 4.75293C9.09814 4.43896 8.77172 4.22363 8.39599 4.22363H8.18457C8.13037 4.22363 8.07776 4.23022 8.02588 4.23886V4.12841C8.02588 3.78174 7.8855 3.44287 7.64038 3.19824C7.39209 2.94971 7.06152 2.8125 6.70996 2.8125H6.18407C5.83227 2.8125 5.50146 2.94971 5.25414 3.19776C5.00878 3.44239 4.86816 3.78174 4.86816 4.12842V4.55417C4.74194 4.61698 4.62292 4.69538 4.52075 4.79786C4.42725 4.89112 4.35437 5.00101 4.29333 5.11698C4.276 5.11606 4.25976 5.11182 4.24219 5.11182H3.84106C3.30786 5.11182 2.87402 5.54541 2.87402 6.07861V6.18897C2.54614 6.27246 2.28492 6.52392 2.18726 6.84619C1.79004 6.9663 1.5 7.33593 1.5 7.77197V8.14794C1.5 8.56884 1.77002 8.92724 2.14575 9.06005V11.4946C2.14575 12.0278 2.57959 12.4619 3.11279 12.4619H3.96801C4.35717 12.4619 4.69335 12.231 4.84667 11.8994C4.96484 11.9507 5.09521 11.9795 5.23218 11.9795H6.27173C6.34375 11.9795 6.41406 11.9717 6.48169 11.9565C6.6477 12.2515 6.96362 12.4507 7.32519 12.4507H8.36498C8.56713 12.4507 8.75463 12.3879 8.91003 12.2814C9.06811 12.3941 9.26013 12.4619 9.4685 12.4619H10.324C10.8572 12.4619 11.291 12.0283 11.291 11.4951V10.9233C11.291 10.9111 11.2878 10.8997 11.2873 10.8876L13.5593 10.8887C14.0928 10.8887 14.5266 10.4546 14.5266 9.92139V8.30908C14.5266 8.1582 14.4861 8.00977 14.4119 7.88037C14.4861 7.75098 14.5266 7.60254 14.5266 7.45166V7.16065Z" fill="#111629"/>
<path d="M7.10913 3.72828C7.00296 3.62214 6.85902 3.5625 6.70891 3.5625H6.1832C6.0331 3.5625 5.88911 3.62212 5.78298 3.72828C5.67681 3.83441 5.61719 3.97837 5.61719 4.12848V4.65422C5.61719 4.68379 5.62132 4.71278 5.62587 4.74163H6.32804C6.49073 4.74163 6.64677 4.80626 6.7618 4.92131C6.83447 4.99404 6.88433 5.08405 6.9132 5.18085C6.98587 5.15268 7.05296 5.11058 7.10913 5.05441C7.21525 4.94828 7.27488 4.80431 7.27488 4.65421V4.12847C7.27488 3.97837 7.21525 3.83442 7.10913 3.72828Z" fill="#CCD4DF"/>
<path d="M10.3245 10.707H9.46898C9.34912 10.707 9.25195 10.8042 9.25195 10.9241V11.4955C9.25195 11.6153 9.34912 11.7125 9.46898 11.7125H10.3245C10.4443 11.7125 10.5415 11.6153 10.5415 11.4955V10.9241C10.5415 10.8042 10.4443 10.707 10.3245 10.707Z" fill="white"/>
<path d="M13.6763 7.55656C13.7325 7.55808 13.7765 7.50715 13.7765 7.45085V7.1601C13.7765 7.00537 13.6793 6.9085 13.5594 6.9085H11.4202C11.2965 6.9085 11.196 6.80878 11.1951 6.68514L11.1935 6.47832C11.1925 6.3591 11.0956 6.26295 10.9764 6.26295H10.7658C10.6459 6.26295 10.5487 6.16577 10.5487 6.04589V5.18891C10.5487 5.06948 10.4519 4.97266 10.3325 4.97266H10.1203C10.0004 4.97266 9.90315 5.06986 9.90315 5.18976V5.40034C9.90315 5.52022 9.80597 5.6174 9.68609 5.6174H8.82995C8.71007 5.6174 8.61289 5.52022 8.61289 5.40034V5.18972C8.61289 5.06984 8.51571 4.97266 8.39583 4.97266H8.18439C8.06451 4.97266 7.96733 5.06984 7.96733 5.18972V5.64393C7.96733 5.76381 7.87015 5.86099 7.75027 5.86099H7.19925C7.07451 5.86099 6.97338 5.96213 6.97338 6.08689C6.97338 6.17432 7.02402 6.25368 7.10343 6.2902C7.21005 6.33922 7.28474 6.44645 7.28474 6.57086V6.59943C7.28474 6.77012 7.14637 6.90848 6.97569 6.90848H6.59723H5.72221H5.03151L4.46556 6.90849C4.29487 6.90849 4.1565 6.77012 4.1565 6.59943V6.57085C4.1565 6.44645 4.23123 6.33921 4.33785 6.2902C4.41727 6.25367 4.4679 6.17432 4.4679 6.08689C4.4679 5.96212 4.36677 5.86098 4.24198 5.86098H3.84096C3.72108 5.86098 3.6239 5.95817 3.6239 6.07805V6.69142C3.6239 6.81131 3.52672 6.90849 3.40683 6.90849H3.11262C2.99274 6.90849 2.89556 7.00567 2.89556 7.12555V7.33698C2.89556 7.45686 2.79838 7.55404 2.6785 7.55404H2.46706C2.34718 7.55404 2.25 7.65122 2.25 7.7711V8.14733C2.25 8.26721 2.34718 8.36439 2.46706 8.36439H2.6785C2.79838 8.36439 2.89556 8.46157 2.89556 8.58145V11.4941C2.89556 11.6139 2.99274 11.7111 3.11262 11.7111H3.96799C4.08775 11.7111 4.18489 11.6141 4.18506 11.4944L4.18667 10.3433C4.18685 10.2169 4.28937 10.1145 4.41578 10.1145H4.78657C4.91268 10.1145 5.01491 10.2168 5.01491 10.3429V11.0117C5.01491 11.1316 5.11209 11.2288 5.23197 11.2288H6.27166C6.39154 11.2288 6.48872 11.1316 6.48872 11.0117V10.3437C6.48872 10.2178 6.59165 10.1151 6.71746 10.1153L6.89145 10.1157C7.01117 10.1159 7.1081 10.213 7.1081 10.3327V11.4829C7.1081 11.6028 7.20527 11.7 7.32513 11.7H8.36493C8.48479 11.7 8.58194 11.6028 8.58194 11.483V10.2508C8.58194 10.158 8.50676 10.0828 8.414 10.0828H8.18606C8.06623 10.0828 7.96906 9.98572 7.96899 9.86589L7.96733 7.12729C7.96725 7.00736 8.06446 6.9101 8.18439 6.9101H8.39583C8.51571 6.9101 8.61288 7.00728 8.61288 7.12716V9.27361C8.61288 9.3935 8.71007 9.49068 8.82996 9.49068H9.03418C9.15409 9.49068 9.25129 9.58788 9.25129 9.70779V9.91893C9.25129 10.0388 9.34842 10.1359 9.46826 10.136L13.5593 10.1377C13.6792 10.1377 13.7764 10.0405 13.7764 9.92061V8.30812C13.7764 8.25156 13.7323 8.20053 13.6758 8.20192C13.5534 8.20492 13.4533 8.10662 13.4533 7.98495V7.7735C13.4533 7.65166 13.5537 7.55326 13.6763 7.55656ZM10.5487 7.33698C10.5487 7.45677 10.4515 7.55404 10.3317 7.55404H10.1203C10.0005 7.55404 9.90316 7.45677 9.90316 7.33698V7.12556C9.90316 7.00577 10.0005 6.9085 10.1203 6.9085H10.3317C10.4515 6.9085 10.5487 7.00577 10.5487 7.12556V7.33698ZM12.7429 7.98494C12.7429 8.10473 12.6456 8.202 12.5259 8.202H12.3144C12.1946 8.202 12.0973 8.10473 12.0973 7.98494V7.7735C12.0973 7.65372 12.1946 7.55644 12.3144 7.55644H12.5259C12.6456 7.55644 12.7429 7.65372 12.7429 7.7735V7.98494Z" fill="white"/>
<path d="M5.97641 5.16211H5.4507C5.3006 5.16211 5.15666 5.22173 5.05052 5.32786C4.94439 5.434 4.88477 5.57794 4.88477 5.72804V6.21189C4.88477 6.36447 5.00846 6.48817 5.16105 6.48817H6.26606C6.41865 6.48817 6.54234 6.36447 6.54234 6.21188V5.72804C6.54234 5.57795 6.48272 5.434 6.37659 5.32787C6.27046 5.22173 6.12651 5.16211 5.97641 5.16211Z" fill="#97A1C0"/>
</svg>
