<svg width="256" height="257" viewBox="0 0 256 257" fill="none" xmlns="http://www.w3.org/2000/svg">
<path d="M101.463 48.5562H74.8396C71.1577 48.5562 68.1729 51.5431 68.1729 55.2276V81.8703C68.1729 85.5548 65.1882 88.5418 61.5063 88.5418H34.6666C30.9848 88.5418 28 91.5287 28 95.2132V161.842C28 165.526 30.9848 168.513 34.6666 168.513H61.5063C65.1882 168.513 68.1729 171.5 68.1729 175.185V201.827C68.1729 205.512 71.1577 208.499 74.8396 208.499H101.463C105.145 208.499 108.13 205.512 108.13 201.827V175.185C108.13 171.5 111.114 168.513 114.796 168.513H188.043V128.527H114.796C111.114 128.527 108.13 125.54 108.13 121.856V55.2276C108.13 51.5431 105.145 48.5562 101.463 48.5562Z" fill="#26E99A"/>
<path d="M227.999 201.824V175.181C227.999 171.496 225.015 168.51 221.333 168.51H188.043V201.824C188.043 205.508 191.028 208.495 194.71 208.495H221.333C225.015 208.495 227.999 205.508 227.999 201.824Z" fill="#26E99A"/>
<path d="M228 88.4868C228 66.4033 210.111 48.5012 188.044 48.5012H154.754C151.072 48.5012 148.087 51.4881 148.087 55.1727V81.8154C148.087 85.4999 151.072 88.4868 154.754 88.4868H181.377C185.059 88.4868 188.044 91.4737 188.044 95.1583V128.529H221.333C225.015 128.529 228 125.543 228 121.858V88.5439C228 88.5247 228 88.5061 228 88.4868Z" fill="#26E99A"/>
</svg>
