<svg width="501" height="87" viewBox="0 0 501 87" fill="none" xmlns="http://www.w3.org/2000/svg">
<path d="M91.1925 71.0525H81.2413C79.8471 71.0525 78.7168 72.185 78.7168 73.582V80.2419C78.7168 81.639 79.8471 82.7715 81.2413 82.7715H91.1925C92.5868 82.7715 93.7171 81.639 93.7171 80.2419V73.582C93.7171 72.185 92.5868 71.0525 91.1925 71.0525Z" fill="#0372FF"/>
<path d="M130.081 34.3461C130.781 34.3356 131.354 33.8159 131.354 33.1149V29.7261C131.354 27.9225 130.224 26.7934 128.83 26.7934H103.945C102.507 26.7934 101.338 25.631 101.327 24.1899L101.308 21.7797C101.298 20.3901 100.17 19.2692 98.7835 19.2692H96.3335C94.939 19.2692 93.8086 18.1365 93.8086 16.7393V6.7508C93.8086 5.35873 92.6823 4.23022 91.293 4.23022H88.8242C87.4298 4.23022 86.2994 5.36288 86.2994 6.76008V9.21514C86.2994 10.6123 85.169 11.745 83.7746 11.745H73.8153C72.4209 11.745 71.2904 10.6123 71.2904 9.21504V6.76017C71.2904 5.36292 70.16 4.23022 68.7655 4.23022H66.3061C64.9117 4.23022 63.7812 5.36292 63.7812 6.76017V12.0543C63.7812 13.4515 62.6508 14.5842 61.2563 14.5842H22.2142C20.8198 14.5842 19.6893 15.7169 19.6893 17.1142V24.2634C19.6893 25.6607 18.5589 26.7934 17.1644 26.7934H13.7419C12.3474 26.7934 11.217 27.9261 11.217 29.3233V31.7877C11.217 33.1849 10.0865 34.3176 8.69208 34.3176H6.23266C4.8382 34.3176 3.70776 35.4503 3.70776 36.8476V41.2327C3.70776 42.63 4.8382 43.7627 6.23266 43.7627H8.69208C10.0865 43.7627 11.217 44.8954 11.217 46.2926V80.2405C11.217 81.6377 12.3474 82.7704 13.7418 82.7704H23.6917C25.0944 82.7704 26.2166 81.6367 26.2166 80.2405L26.2353 66.8225C26.2353 65.3514 27.4323 64.1614 28.9005 64.1614H31.07C32.5368 64.1614 33.7258 65.3528 33.7258 66.8225V74.6184C33.7258 76.0157 34.8563 77.1484 36.2507 77.1484H46.2006C47.595 77.1484 48.7255 76.0157 48.7255 74.6184V66.8319C48.7255 65.3655 49.9229 64.1679 51.3864 64.1707L53.4104 64.1746C54.8029 64.1773 55.9304 65.3092 55.9304 66.7045V80.1111C55.9304 81.5081 57.0606 82.6406 58.4548 82.6406H68.4062C69.8004 82.6406 70.9306 81.5081 70.9306 80.1112V65.7494C70.9306 64.6683 70.0559 63.7919 68.977 63.7919H66.3254C64.9315 63.7919 63.8013 62.6602 63.8005 61.2635L63.7812 29.3421C63.7812 27.9459 64.9128 26.8121 66.3061 26.8121H68.7655C70.16 26.8121 71.2904 27.9448 71.2904 29.3421V54.3601C71.2904 55.7574 72.4209 56.8902 73.8154 56.8902H76.1915C77.586 56.8902 78.7165 58.0229 78.7165 59.4202V61.8816C78.7165 63.2785 79.8463 64.411 81.2404 64.4116L128.83 64.4311C130.223 64.4311 131.354 63.2973 131.354 61.9012V43.1068C131.354 42.4054 130.775 41.8815 130.075 41.8694C128.701 41.8456 127.595 40.7223 127.595 39.3401V36.8756C127.595 35.4914 128.705 34.3668 130.081 34.3461ZM111.822 36.8757C111.822 35.4795 112.954 34.3457 114.347 34.3457H116.807C118.2 34.3457 119.332 35.4795 119.332 36.8757V39.34C119.332 40.7362 118.2 41.87 116.807 41.87H114.347C112.954 41.87 111.822 40.7361 111.822 39.34V36.8757ZM86.2994 29.3233C86.2994 27.9272 87.431 26.7934 88.8242 26.7934H91.2837C92.677 26.7934 93.8085 27.9272 93.8085 29.3233V31.7877C93.8085 33.1838 92.677 34.3176 91.2837 34.3176H88.8242C87.431 34.3176 86.2994 33.1838 86.2994 31.7877V29.3233Z" fill="#0372FF"/>
<path d="M423.668 56.5988V30.3748C423.668 29.3403 424.497 28.5017 425.519 28.5017H432.92C433.941 28.5017 434.77 29.3403 434.77 30.3748V49.1062C434.77 50.1407 435.598 50.9794 436.62 50.9794H462.523C463.545 50.9794 464.373 51.818 464.373 52.8525V56.5988C464.373 57.6333 463.545 58.4719 462.523 58.4719H425.519C424.497 58.4719 423.668 57.6333 423.668 56.5988Z" fill="#0372FF"/>
<path d="M193.38 56.6281V30.4041C193.38 29.3696 194.208 28.531 195.23 28.531H232.235C233.257 28.531 234.085 29.3696 234.085 30.4041V34.1504C234.085 35.1849 233.257 36.0236 232.235 36.0236H206.332C205.31 36.0236 204.481 36.8622 204.481 37.8967C204.481 38.9312 205.31 39.7698 206.332 39.7698H228.534C229.556 39.7698 230.385 40.6084 230.385 41.6429V45.3892C230.385 46.4237 229.556 47.2624 228.534 47.2624H206.332C205.31 47.2624 204.481 48.101 204.481 49.1355C204.481 50.17 205.31 51.0086 206.332 51.0086H232.235C233.257 51.0086 234.085 51.8473 234.085 52.8818V56.6281C234.085 57.6625 233.257 58.5012 232.235 58.5012H195.23C194.208 58.5012 193.38 57.6626 193.38 56.6281Z" fill="#0372FF"/>
<path d="M147.323 56.6281V30.4041C147.323 29.3696 148.151 28.531 149.173 28.531H182.477C183.499 28.531 184.327 29.3696 184.327 30.4041C184.327 31.4387 185.156 32.2773 186.178 32.2773C187.199 32.2773 188.028 33.1159 188.028 34.1504V45.3893C188.028 46.4238 187.199 47.2624 186.178 47.2624C185.156 47.2624 184.327 48.101 184.327 49.1355C184.327 50.17 185.156 51.0087 186.178 51.0087C187.199 51.0087 188.028 51.8473 188.028 52.8818V56.6281C188.028 57.6626 187.199 58.5012 186.178 58.5012H178.777C177.755 58.5012 176.926 57.6626 176.926 56.6281V52.8818C176.926 51.8473 176.098 51.0087 175.076 51.0087H160.274C159.253 51.0087 158.424 51.8473 158.424 52.8818V56.6281C158.424 57.6626 157.596 58.5012 156.574 58.5012H149.173C148.151 58.5012 147.323 57.6626 147.323 56.6281ZM160.274 43.5161H175.076C176.098 43.5161 176.926 42.6775 176.926 41.643V37.8967C176.926 36.8622 176.098 36.0236 175.076 36.0236H160.274C159.252 36.0236 158.424 36.8622 158.424 37.8967V41.643C158.424 42.6775 159.252 43.5161 160.274 43.5161Z" fill="#0372FF"/>
<path d="M239.493 56.5936V52.8574C239.493 51.8256 240.319 50.9893 241.338 50.9893H267.172C268.191 50.9893 269.017 50.1529 269.017 49.1212C269.017 48.0894 268.191 47.253 267.172 47.253H245.029C244.01 47.253 243.183 46.4167 243.183 45.3849C243.183 44.3532 242.357 43.5168 241.338 43.5168C240.319 43.5168 239.493 42.6805 239.493 41.6487V34.1763C239.493 33.1446 240.319 32.3082 241.338 32.3082C242.357 32.3082 243.183 31.4718 243.183 30.4401C243.183 29.4084 244.01 28.572 245.029 28.572H278.243C279.262 28.572 280.089 29.4084 280.089 30.4401V34.1763C280.089 35.208 279.262 36.0444 278.243 36.0444H252.41C251.391 36.0444 250.564 36.8808 250.564 37.9125C250.564 38.9443 251.391 39.7806 252.41 39.7806H274.553C275.572 39.7806 276.398 40.617 276.398 41.6487C276.398 42.6805 277.224 43.5168 278.243 43.5168C279.262 43.5168 280.089 44.3532 280.089 45.3849V52.8574C280.089 53.8891 279.262 54.7255 278.243 54.7255C277.224 54.7255 276.398 55.5619 276.398 56.5936C276.398 57.6253 275.572 58.4617 274.553 58.4617H241.338C240.319 58.4617 239.493 57.6254 239.493 56.5936Z" fill="#0372FF"/>
<path d="M289.241 56.5936C289.241 55.5619 288.415 54.7255 287.396 54.7255C286.376 54.7255 285.55 53.8891 285.55 52.8574V30.4401C285.55 29.4084 286.376 28.572 287.396 28.572H294.777C295.796 28.572 296.622 29.4084 296.622 30.4401V49.1212C296.622 50.1529 297.448 50.9893 298.467 50.9893H313.229C314.248 50.9893 315.074 50.1529 315.074 49.1212V30.4401C315.074 29.4084 315.901 28.572 316.92 28.572H324.301C325.32 28.572 326.146 29.4084 326.146 30.4401V52.8574C326.146 53.8891 325.32 54.7255 324.301 54.7255C323.282 54.7255 322.455 55.5619 322.455 56.5936C322.455 57.6253 321.629 58.4617 320.61 58.4617H291.086C290.067 58.4617 289.241 57.6253 289.241 56.5936Z" fill="#0372FF"/>
<path d="M370.356 32.2935C369.334 32.2935 368.505 31.4694 368.505 30.4354C368.505 29.4014 367.691 28.5623 366.67 28.5623H333.455C332.433 28.5623 331.604 29.4014 331.604 30.4354V56.5844C331.604 57.6184 332.433 58.4575 333.455 58.4575H340.826C341.847 58.4575 342.676 57.6184 342.676 56.5844V52.8531C342.676 51.8191 343.505 50.98 344.526 50.98H366.67C367.691 50.98 368.505 50.1408 368.505 49.1068C368.505 48.0729 369.334 47.2487 370.356 47.2487C371.377 47.2487 372.206 46.4095 372.206 45.3756V34.1667C372.206 33.1327 371.377 32.2935 370.356 32.2935ZM361.134 41.6442C361.134 42.6782 360.305 43.5024 359.284 43.5024H344.526C343.505 43.5024 342.676 42.6782 342.676 41.6442V37.8979C342.676 36.879 343.505 36.0398 344.526 36.0398H359.284C360.305 36.0398 361.134 36.879 361.134 37.8979V41.6442Z" fill="#0372FF"/>
<path d="M416.414 32.2779C415.393 32.2779 414.564 31.4537 414.564 30.4198C414.564 29.3858 413.75 28.5466 412.728 28.5466H379.513C378.492 28.5466 377.663 29.3858 377.663 30.4198V56.5688C377.663 57.6027 378.492 58.4419 379.513 58.4419H386.884C387.906 58.4419 388.735 57.6027 388.735 56.5688V52.8375C388.735 51.8035 389.563 50.9644 390.585 50.9644H412.728C413.75 50.9644 414.564 50.1252 414.564 49.0912C414.564 48.0572 415.393 47.2331 416.414 47.2331C417.435 47.2331 418.264 46.3939 418.264 45.3599V34.151C418.264 33.1171 417.435 32.2779 416.414 32.2779ZM407.192 41.6286C407.192 42.6626 406.364 43.4868 405.342 43.4868H390.585C389.563 43.4868 388.735 42.6626 388.735 41.6286V37.8823C388.735 36.8633 389.563 36.0242 390.585 36.0242H405.342C406.364 36.0242 407.192 36.8633 407.192 37.8823V41.6286Z" fill="#0372FF"/>
<path d="M496.624 30.412V34.1432C496.624 35.1777 495.796 36.0164 494.774 36.0164H493.69C493.199 36.0164 492.729 36.2137 492.382 36.565L482.396 46.6762C482.048 47.0277 481.852 47.5053 481.852 48.0033V56.561C481.852 57.5955 481.023 58.4341 480.002 58.4341H472.63C471.608 58.4341 470.78 57.5955 470.78 56.561V48.0011C470.78 47.5044 470.585 47.0279 470.238 46.6767L460.25 36.565C459.903 36.2137 459.433 36.0164 458.942 36.0164H457.873C456.851 36.0164 456.023 35.1777 456.023 34.1432V30.412C456.023 29.3774 456.851 28.5388 457.873 28.5388H466.326C466.818 28.5388 467.29 28.7372 467.637 29.0901L474.481 36.0164L475.017 36.5597C475.742 37.2932 476.917 37.2909 477.639 36.5543L478.166 36.0164L485.01 29.0875C485.357 28.7362 485.828 28.5388 486.319 28.5388H494.774C495.796 28.5388 496.624 29.3774 496.624 30.412Z" fill="#0372FF"/>
</svg>
