<svg width="500" height="81" viewBox="0 0 500 81" fill="none" xmlns="http://www.w3.org/2000/svg">
<g clip-path="url(#clip0_8_375)">
<path d="M327.307 66.1025V58.7903C327.307 56.7711 328.944 55.1343 330.963 55.1343H382.147C384.167 55.1343 385.803 53.4974 385.803 51.4782C385.803 49.459 384.167 47.8222 382.147 47.8222H338.275C336.256 47.8222 334.619 46.1853 334.619 44.1661C334.619 42.1469 332.982 40.5101 330.963 40.5101C328.944 40.5101 327.307 38.8732 327.307 36.854V22.2299C327.307 20.2107 328.944 18.5738 330.963 18.5738C332.982 18.5738 334.619 16.9369 334.619 14.9178C334.619 12.8986 336.256 11.2617 338.275 11.2617H404.084C406.103 11.2617 407.74 12.8986 407.74 14.9178V22.2299C407.74 24.249 406.103 25.8859 404.084 25.8859H352.899C350.88 25.8859 349.243 27.5228 349.243 29.5419C349.243 31.5611 350.88 33.198 352.899 33.198H396.772C398.791 33.198 400.428 34.8349 400.428 36.854C400.428 38.8732 402.064 40.5101 404.084 40.5101C406.103 40.5101 407.74 42.1469 407.74 44.1661V58.7904C407.74 60.8096 406.103 62.4465 404.084 62.4465C402.064 62.4465 400.428 64.0834 400.428 66.1025C400.428 68.1217 398.791 69.7586 396.772 69.7586H330.963C328.944 69.7586 327.307 68.1217 327.307 66.1025Z" fill="white"/>
<path d="M243.12 66.1025C243.12 64.0834 241.483 62.4465 239.464 62.4465C237.444 62.4465 235.808 60.8096 235.808 58.7904V14.9178C235.808 12.8986 237.444 11.2617 239.464 11.2617H254.088C256.107 11.2617 257.744 12.8986 257.744 14.9178V51.4782C257.744 53.4974 259.381 55.1343 261.4 55.1343H290.648C292.667 55.1343 294.304 53.4974 294.304 51.4782V14.9178C294.304 12.8986 295.941 11.2617 297.96 11.2617H312.585C314.604 11.2617 316.241 12.8986 316.241 14.9178V58.7904C316.241 60.8096 314.604 62.4465 312.585 62.4465C310.565 62.4465 308.929 64.0834 308.929 66.1025C308.929 68.1217 307.292 69.7586 305.272 69.7586H246.776C244.757 69.7586 243.12 68.1217 243.12 66.1025Z" fill="white"/>
<path d="M492.017 14.8514C492.017 12.8268 490.376 11.1855 488.351 11.1855H422.365C420.34 11.1855 418.699 12.8268 418.699 14.8514V66.174C418.699 68.1987 420.34 69.8399 422.365 69.8399H488.351C490.376 69.8399 492.017 68.1987 492.017 66.174C492.017 64.1494 493.658 62.5081 495.683 62.5081C497.708 62.5081 499.349 60.8669 499.349 58.8422V22.1832C499.349 20.1586 497.708 18.5173 495.683 18.5173C493.658 18.5173 492.017 16.8761 492.017 14.8514ZM473.688 55.1763H444.361C442.336 55.1763 440.695 53.5351 440.695 51.5104V29.515C440.695 27.4904 442.336 25.8491 444.361 25.8491H473.688C475.712 25.8491 477.354 27.4904 477.354 29.515V51.5104C477.354 53.5351 475.712 55.1763 473.688 55.1763Z" fill="white"/>
<path d="M138.152 65.4414V30.2487C138.152 27.8192 140.122 25.8496 142.551 25.8496H151.35C153.779 25.8496 155.749 27.8192 155.749 30.2487C155.749 32.6782 157.718 34.6478 160.148 34.6478C162.577 34.6478 164.547 32.6782 164.547 30.2487C164.547 27.8192 166.516 25.8496 168.946 25.8496C171.375 25.8496 173.345 27.8192 173.345 30.2487V39.0468C173.345 41.4763 171.375 43.4459 168.946 43.4459H160.148C157.718 43.4459 155.749 45.4154 155.749 47.8449V65.4413C155.749 67.8708 153.779 69.8404 151.35 69.8404H142.551C140.122 69.8404 138.152 67.8709 138.152 65.4414ZM202.731 43.4459C205.16 43.4459 207.13 41.4764 207.13 39.0468C207.13 36.6173 205.16 34.6478 202.731 34.6478C200.301 34.6478 198.332 36.6173 198.332 39.0468C198.332 41.4764 200.301 43.4459 202.731 43.4459ZM224.726 39.0468V47.8449C224.726 50.2745 222.756 52.244 220.327 52.244H202.731C200.301 52.244 198.332 54.2135 198.332 56.643C198.332 59.0726 200.301 61.0422 202.731 61.0422H220.327C222.756 61.0422 224.726 63.0118 224.726 65.4413C224.726 67.8708 222.756 69.8404 220.327 69.8404H193.933C191.503 69.8404 189.533 67.8708 189.533 65.4413C189.533 63.0118 187.564 61.0422 185.134 61.0422C182.705 61.0422 180.735 59.0727 180.735 56.6432V39.0468C180.735 36.6173 182.705 34.6477 185.134 34.6477C187.564 34.6477 189.533 32.6782 189.533 30.2487C189.533 27.8191 191.503 25.8496 193.933 25.8496H211.529C213.958 25.8496 215.928 27.8191 215.928 30.2487C215.928 32.6782 217.897 34.6477 220.327 34.6477C222.756 34.6477 224.726 36.6173 224.726 39.0468Z" fill="white"/>
<path d="M37.1709 0.759766H23.9364C22.1061 0.759766 20.6224 2.24457 20.6224 4.07616V17.3203C20.6224 19.1519 19.1386 20.6367 17.3084 20.6367H3.96634C2.13607 20.6367 0.652344 22.1215 0.652344 23.9531V57.0741C0.652344 58.9057 2.13607 60.3905 3.96634 60.3905H17.3084C19.1386 60.3905 20.6224 61.8753 20.6224 63.7069V76.951C20.6224 78.7826 22.1061 80.2674 23.9364 80.2674H37.1709C39.0011 80.2674 40.4849 78.7826 40.4849 76.951V63.7069C40.4849 61.8753 41.9686 60.3905 43.7989 60.3905H80.2099V40.5136H43.7989C41.9686 40.5136 40.4849 39.0288 40.4849 37.1972V4.07616C40.4849 2.24457 39.0011 0.759766 37.1709 0.759766Z" fill="#26E99A"/>
<path d="M100.072 76.9511V63.707C100.072 61.8754 98.5886 60.3906 96.7583 60.3906H80.21V76.9511C80.21 78.7827 81.6937 80.2675 83.524 80.2675H96.7583C98.5886 80.2675 100.072 78.7827 100.072 76.9511Z" fill="#26E99A"/>
<path d="M100.073 20.6093C100.073 9.63157 91.1798 0.732422 80.2102 0.732422H63.6617C61.8314 0.732422 60.3477 2.21722 60.3477 4.04882V17.2929C60.3477 19.1245 61.8314 20.6093 63.6617 20.6093H76.8962C78.7264 20.6093 80.2102 22.0941 80.2102 23.9257V40.5146H96.7585C98.5888 40.5146 100.073 39.0298 100.073 37.1982V20.6377C100.073 20.6281 100.073 20.6189 100.073 20.6093Z" fill="#26E99A"/>
</g>
<defs>
<clipPath id="clip0_8_375">
<rect width="500" height="80" fill="white" transform="translate(0 0.5)"/>
</clipPath>
</defs>
</svg>
