<svg width="256" height="256" viewBox="0 0 256 256" fill="none" xmlns="http://www.w3.org/2000/svg">
<path d="M232.426 114.57C232.426 105.586 225.629 98.5469 216.953 98.5469H190.215C188.656 94.1562 185.164 90.6718 180.781 89.1094V83.0312C180.781 74.5078 173.844 67.5781 165.32 67.5781H161.926C155.914 67.5781 150.691 71.0234 148.129 76.0468C145.57 71.0234 140.348 67.5781 134.336 67.5781H130.953C130.086 67.5781 129.244 67.6835 128.414 67.8218V66.0546C128.414 60.5078 126.168 55.0859 122.246 51.1718C118.273 47.1953 112.984 45 107.359 45H98.9452C93.3163 45 88.0234 47.1953 84.0663 51.1641C80.1406 55.0782 77.8906 60.5078 77.8906 66.0547V72.8667C75.871 73.8716 73.9667 75.126 72.332 76.7657C70.8359 78.2578 69.6699 80.0162 68.6934 81.8716C68.416 81.857 68.1562 81.7891 67.875 81.7891H61.457C52.9258 81.7891 45.9844 88.7266 45.9844 97.2578V99.0234C40.7383 100.359 36.5586 104.383 34.9961 109.539C28.6406 111.461 24 117.375 24 124.352V130.367C24 137.102 28.3203 142.836 34.332 144.961V183.914C34.332 192.445 41.2734 199.391 49.8046 199.391H63.4882C69.7148 199.391 75.0937 195.695 77.5468 190.391C79.4374 191.211 81.5234 191.672 83.7148 191.672H100.348C101.5 191.672 102.625 191.547 103.707 191.305C106.363 196.023 111.418 199.211 117.203 199.211H133.84C137.074 199.211 140.074 198.206 142.56 196.503C145.09 198.305 148.162 199.391 151.496 199.391H165.184C173.715 199.391 180.656 192.453 180.656 183.922V174.773C180.656 174.578 180.605 174.396 180.598 174.201L216.949 174.219C225.484 174.219 232.426 167.274 232.426 158.742V132.945C232.426 130.531 231.777 128.156 230.59 126.086C231.777 124.016 232.426 121.641 232.426 119.227V114.57Z" fill="#111629"/>
<path d="M113.746 59.6524C112.047 57.9542 109.744 57 107.343 57H98.9312C96.5296 57 94.2257 57.954 92.5277 59.6524C90.829 61.3506 89.875 63.6538 89.875 66.0556V74.4676C89.875 74.9406 89.9412 75.4046 90.0139 75.8661H101.249C103.852 75.8661 106.348 76.9002 108.189 78.741C109.351 79.9046 110.149 81.3448 110.611 82.8936C111.774 82.4429 112.847 81.7692 113.746 80.8706C115.444 79.1724 116.398 76.869 116.398 74.4674V66.0555C116.398 63.6539 115.444 61.3507 113.746 59.6524Z" fill="#CCD4DF"/>
<path d="M165.191 171.297H151.504C149.586 171.297 148.031 172.852 148.031 174.769V183.912C148.031 185.829 149.586 187.384 151.504 187.384H165.191C167.109 187.384 168.664 185.829 168.664 183.912V174.769C168.664 172.852 167.109 171.297 165.191 171.297Z" fill="white"/>
<path d="M218.82 120.921C219.72 120.945 220.423 120.13 220.423 119.229V114.577C220.423 112.101 218.868 110.552 216.95 110.552H182.723C180.745 110.552 179.137 108.956 179.121 106.978L179.095 103.669C179.08 101.761 177.53 100.223 175.622 100.223H172.252C170.334 100.223 168.779 98.668 168.779 96.7499V83.0381C168.779 81.1272 167.23 79.5781 165.319 79.5781H161.924C160.006 79.5781 158.45 81.1333 158.45 83.0518V86.421C158.45 88.3391 156.896 89.894 154.977 89.894H141.279C139.361 89.894 137.806 88.3391 137.806 86.421V83.0511C137.806 81.133 136.251 79.5781 134.333 79.5781H130.95C129.032 79.5781 127.477 81.133 127.477 83.0511V90.3184C127.477 92.2365 125.922 93.7914 124.004 93.7914H115.188C113.192 93.7914 111.574 95.4097 111.574 97.4059C111.574 98.8048 112.384 100.074 113.655 100.659C115.361 101.443 116.556 103.159 116.556 105.149V105.607C116.556 108.337 114.342 110.551 111.611 110.551H105.556H91.5554H80.5042L71.449 110.551C68.718 110.551 66.504 108.338 66.504 105.606V105.149C66.504 103.159 67.6998 101.443 69.4057 100.659C70.6763 100.074 71.4864 98.8047 71.4864 97.4058C71.4864 95.4096 69.8683 93.7913 67.8717 93.7913H61.4554C59.5374 93.7913 57.9824 95.3463 57.9824 97.2644V107.078C57.9824 108.997 56.4274 110.551 54.5093 110.551H49.8019C47.8838 110.551 46.329 112.106 46.329 114.024V117.407C46.329 119.325 44.7741 120.88 42.856 120.88H39.473C37.5549 120.88 36 122.435 36 124.353V130.373C36 132.291 37.5549 133.846 39.473 133.846H42.856C44.7741 133.846 46.329 135.401 46.329 137.319V183.921C46.329 185.839 47.8838 187.393 49.8019 187.393H63.4879C65.4041 187.393 66.9582 185.842 66.9609 183.925L66.9868 165.509C66.9897 163.486 68.63 161.848 70.6526 161.848H76.5851C78.6029 161.848 80.2386 163.484 80.2386 165.502V176.203C80.2386 178.121 81.7935 179.676 83.7116 179.676H100.346C102.265 179.676 103.819 178.121 103.819 176.203V165.514C103.819 163.501 105.466 161.857 107.479 161.861L110.263 161.866C112.179 161.87 113.73 163.424 113.73 165.339V183.743C113.73 185.661 115.284 187.215 117.202 187.215H133.839C135.757 187.215 137.311 185.661 137.311 183.743V164.028C137.311 162.544 136.108 161.341 134.624 161.341H130.977C129.06 161.341 127.505 159.787 127.504 157.87L127.477 114.052C127.476 112.133 129.031 110.577 130.95 110.577H134.333C136.251 110.577 137.806 112.132 137.806 114.05V148.393C137.806 150.312 139.361 151.867 141.279 151.867H144.547C146.465 151.867 148.021 153.422 148.021 155.34V158.719C148.021 160.636 149.575 162.191 151.492 162.191L216.949 162.218C218.867 162.219 220.423 160.664 220.423 158.745V132.946C220.423 132.041 219.717 131.224 218.812 131.246C216.854 131.294 215.252 129.721 215.252 127.775V124.392C215.252 122.442 216.86 120.868 218.82 120.921ZM168.779 117.407C168.779 119.324 167.223 120.88 165.306 120.88H161.924C160.007 120.88 158.45 119.324 158.45 117.407V114.025C158.45 112.108 160.007 110.552 161.924 110.552H165.306C167.223 110.552 168.779 112.108 168.779 114.025V117.407ZM203.886 127.775C203.886 129.691 202.33 131.248 200.414 131.248H197.031C195.114 131.248 193.557 129.691 193.557 127.775V124.392C193.557 122.475 195.114 120.919 197.031 120.919H200.414C202.33 120.919 203.886 122.475 203.886 124.392V127.775Z" fill="white"/>
<path d="M95.6226 82.5938H87.2111C84.8096 82.5938 82.5065 83.5477 80.8083 85.2458C79.1103 86.944 78.1562 89.2471 78.1562 91.6486V99.3902C78.1562 101.832 80.1354 103.811 82.5767 103.811H100.257C102.698 103.811 104.677 101.832 104.677 99.3901V91.6487C104.677 89.2472 103.723 86.9441 102.025 85.2459C100.327 83.5478 98.0241 82.5938 95.6226 82.5938Z" fill="#97A1C0"/>
</svg>
